<?xml version="1.0" encoding="UTF-8" standalone="no"?>
<!DOCTYPE svg PUBLIC "-//W3C//DTD SVG 1.1//EN"
 "http://www.w3.org/Graphics/SVG/1.1/DTD/svg11.dtd">
<!-- Generated by graphviz version 2.40.1 (20161225.0304)
 -->
<!-- Title: snakemake_dag Pages: 1 -->
<svg width="485pt" height="620pt"
 viewBox="0.00 0.00 484.65 620.00" xmlns="http://www.w3.org/2000/svg" xmlns:xlink="http://www.w3.org/1999/xlink">
<g id="graph0" class="graph" transform="scale(1 1) rotate(0) translate(4 616)">
<title>snakemake_dag</title>
<polygon fill="#ffffff" stroke="transparent" points="-4,4 -4,-616 480.645,-616 480.645,4 -4,4"/>
<!-- 0 -->
<g id="node1" class="node">
<title>0</title>
<path fill="none" stroke="#d85656" stroke-width="2" d="M184.4702,-36C184.4702,-36 154.4702,-36 154.4702,-36 148.4702,-36 142.4702,-30 142.4702,-24 142.4702,-24 142.4702,-12 142.4702,-12 142.4702,-6 148.4702,0 154.4702,0 154.4702,0 184.4702,0 184.4702,0 190.4702,0 196.4702,-6 196.4702,-12 196.4702,-12 196.4702,-24 196.4702,-24 196.4702,-30 190.4702,-36 184.4702,-36"/>
<text text-anchor="middle" x="169.4702" y="-15" font-family="sans" font-size="10.00" fill="#000000">all</text>
</g>
<!-- 1 -->
<g id="node2" class="node">
<title>1</title>
<path fill="none" stroke="#d8bc56" stroke-width="2" d="M192.9396,-108C192.9396,-108 146.0009,-108 146.0009,-108 140.0009,-108 134.0009,-102 134.0009,-96 134.0009,-96 134.0009,-84 134.0009,-84 134.0009,-78 140.0009,-72 146.0009,-72 146.0009,-72 192.9396,-72 192.9396,-72 198.9396,-72 204.9396,-78 204.9396,-84 204.9396,-84 204.9396,-96 204.9396,-96 204.9396,-102 198.9396,-108 192.9396,-108"/>
<text text-anchor="middle" x="169.4702" y="-87" font-family="sans" font-size="10.00" fill="#000000">html_Report</text>
</g>
<!-- 1&#45;&gt;0 -->
<g id="edge1" class="edge">
<title>1&#45;&gt;0</title>
<path fill="none" stroke="#c0c0c0" stroke-width="2" d="M169.4702,-71.8314C169.4702,-64.131 169.4702,-54.9743 169.4702,-46.4166"/>
<polygon fill="#c0c0c0" stroke="#c0c0c0" stroke-width="2" points="172.9703,-46.4132 169.4702,-36.4133 165.9703,-46.4133 172.9703,-46.4132"/>
</g>
<!-- 2 -->
<g id="node3" class="node">
<title>2</title>
<path fill="none" stroke="#d8bc56" stroke-width="2" d="M369.9396,-108C369.9396,-108 323.0009,-108 323.0009,-108 317.0009,-108 311.0009,-102 311.0009,-96 311.0009,-96 311.0009,-84 311.0009,-84 311.0009,-78 317.0009,-72 323.0009,-72 323.0009,-72 369.9396,-72 369.9396,-72 375.9396,-72 381.9396,-78 381.9396,-84 381.9396,-84 381.9396,-96 381.9396,-96 381.9396,-102 375.9396,-108 369.9396,-108"/>
<text text-anchor="middle" x="346.4702" y="-87" font-family="sans" font-size="10.00" fill="#000000">html_Report</text>
</g>
<!-- 2&#45;&gt;0 -->
<g id="edge2" class="edge">
<title>2&#45;&gt;0</title>
<path fill="none" stroke="#c0c0c0" stroke-width="2" d="M311.077,-75.6028C280.672,-63.2346 236.9961,-45.4681 206.2079,-32.9441"/>
<polygon fill="#c0c0c0" stroke="#c0c0c0" stroke-width="2" points="207.2795,-29.6016 196.6978,-29.0756 204.6419,-36.0857 207.2795,-29.6016"/>
</g>
<!-- 3 -->
<g id="node4" class="node">
<title>3</title>
<path fill="none" stroke="#bed856" stroke-width="2" d="M72.9107,-396C72.9107,-396 12.0298,-396 12.0298,-396 6.0298,-396 .0298,-390 .0298,-384 .0298,-384 .0298,-372 .0298,-372 .0298,-366 6.0298,-360 12.0298,-360 12.0298,-360 72.9107,-360 72.9107,-360 78.9107,-360 84.9107,-366 84.9107,-372 84.9107,-372 84.9107,-384 84.9107,-384 84.9107,-390 78.9107,-396 72.9107,-396"/>
<text text-anchor="middle" x="42.4702" y="-375" font-family="sans" font-size="10.00" fill="#000000">manhattan_plot</text>
</g>
<!-- 3&#45;&gt;0 -->
<g id="edge3" class="edge">
<title>3&#45;&gt;0</title>
<path fill="none" stroke="#c0c0c0" stroke-width="2" d="M45.7854,-359.8863C50.4719,-332.6615 58.4702,-279.5285 58.4702,-234 58.4702,-234 58.4702,-234 58.4702,-162 58.4702,-111.5129 101.8,-67.9015 134.3158,-42.2822"/>
<polygon fill="#c0c0c0" stroke="#c0c0c0" stroke-width="2" points="136.4996,-45.0184 142.3166,-36.1633 132.2471,-39.4581 136.4996,-45.0184"/>
</g>
<!-- 4 -->
<g id="node5" class="node">
<title>4</title>
<path fill="none" stroke="#56d88a" stroke-width="2" stroke-dasharray="5,2" d="M264.7538,-180C264.7538,-180 230.1866,-180 230.1866,-180 224.1866,-180 218.1866,-174 218.1866,-168 218.1866,-168 218.1866,-156 218.1866,-156 218.1866,-150 224.1866,-144 230.1866,-144 230.1866,-144 264.7538,-144 264.7538,-144 270.7538,-144 276.7538,-150 276.7538,-156 276.7538,-156 276.7538,-168 276.7538,-168 276.7538,-174 270.7538,-180 264.7538,-180"/>
<text text-anchor="middle" x="247.4702" y="-159" font-family="sans" font-size="10.00" fill="#000000">MrPresso</text>
</g>
<!-- 4&#45;&gt;1 -->
<g id="edge4" class="edge">
<title>4&#45;&gt;1</title>
<path fill="none" stroke="#c0c0c0" stroke-width="2" d="M227.7875,-143.8314C218.3651,-135.1337 206.9301,-124.5783 196.6906,-115.1265"/>
<polygon fill="#c0c0c0" stroke="#c0c0c0" stroke-width="2" points="198.8687,-112.3738 189.1466,-108.1628 194.1207,-117.5175 198.8687,-112.3738"/>
</g>
<!-- 5 -->
<g id="node6" class="node">
<title>5</title>
<path fill="none" stroke="#88d856" stroke-width="2" stroke-dasharray="5,2" d="M227.5093,-396C227.5093,-396 155.4311,-396 155.4311,-396 149.4311,-396 143.4311,-390 143.4311,-384 143.4311,-384 143.4311,-372 143.4311,-372 143.4311,-366 149.4311,-360 155.4311,-360 155.4311,-360 227.5093,-360 227.5093,-360 233.5093,-360 239.5093,-366 239.5093,-372 239.5093,-372 239.5093,-384 239.5093,-384 239.5093,-390 233.5093,-396 227.5093,-396"/>
<text text-anchor="middle" x="191.4702" y="-380" font-family="sans" font-size="10.00" fill="#000000">OutcomeSnps</text>
<text text-anchor="middle" x="191.4702" y="-370" font-family="sans" font-size="10.00" fill="#000000">OutcomeCode: ldl</text>
</g>
<!-- 5&#45;&gt;1 -->
<g id="edge5" class="edge">
<title>5&#45;&gt;1</title>
<path fill="none" stroke="#c0c0c0" stroke-width="2" d="M181.8794,-359.5602C177.1203,-349.373 171.8833,-336.3186 169.4702,-324 155.1492,-250.8914 161.3452,-162.4509 166.013,-118.1577"/>
<polygon fill="#c0c0c0" stroke="#c0c0c0" stroke-width="2" points="169.5008,-118.46 167.124,-108.1352 162.5434,-117.6886 169.5008,-118.46"/>
</g>
<!-- 6 -->
<g id="node7" class="node">
<title>6</title>
<path fill="none" stroke="#d88d56" stroke-width="2" stroke-dasharray="5,2" d="M230.8257,-324C230.8257,-324 190.1147,-324 190.1147,-324 184.1147,-324 178.1147,-318 178.1147,-312 178.1147,-312 178.1147,-300 178.1147,-300 178.1147,-294 184.1147,-288 190.1147,-288 190.1147,-288 230.8257,-288 230.8257,-288 236.8257,-288 242.8257,-294 242.8257,-300 242.8257,-300 242.8257,-312 242.8257,-312 242.8257,-318 236.8257,-324 230.8257,-324"/>
<text text-anchor="middle" x="210.4702" y="-303" font-family="sans" font-size="10.00" fill="#000000">ProxySnps</text>
</g>
<!-- 5&#45;&gt;6 -->
<g id="edge15" class="edge">
<title>5&#45;&gt;6</title>
<path fill="none" stroke="#c0c0c0" stroke-width="2" d="M196.2647,-359.8314C198.3191,-352.0463 200.7662,-342.7729 203.0458,-334.1347"/>
<polygon fill="#c0c0c0" stroke="#c0c0c0" stroke-width="2" points="206.4437,-334.9753 205.6112,-324.4133 199.6754,-333.1892 206.4437,-334.9753"/>
</g>
<!-- 6&#45;&gt;1 -->
<g id="edge6" class="edge">
<title>6&#45;&gt;1</title>
<path fill="none" stroke="#c0c0c0" stroke-width="2" d="M207.0451,-287.9555C199.9003,-250.3144 183.3621,-163.1867 174.8087,-118.1246"/>
<polygon fill="#c0c0c0" stroke="#c0c0c0" stroke-width="2" points="178.218,-117.3169 172.9144,-108.1451 171.3407,-118.6224 178.218,-117.3169"/>
</g>
<!-- 13 -->
<g id="node14" class="node">
<title>13</title>
<path fill="none" stroke="#56d8c1" stroke-width="2" stroke-dasharray="5,2" d="M268.8208,-252C268.8208,-252 228.1197,-252 228.1197,-252 222.1197,-252 216.1197,-246 216.1197,-240 216.1197,-240 216.1197,-228 216.1197,-228 216.1197,-222 222.1197,-216 228.1197,-216 228.1197,-216 268.8208,-216 268.8208,-216 274.8208,-216 280.8208,-222 280.8208,-228 280.8208,-228 280.8208,-240 280.8208,-240 280.8208,-246 274.8208,-252 268.8208,-252"/>
<text text-anchor="middle" x="248.4702" y="-231" font-family="sans" font-size="10.00" fill="#000000">Harmonize</text>
</g>
<!-- 6&#45;&gt;13 -->
<g id="edge22" class="edge">
<title>6&#45;&gt;13</title>
<path fill="none" stroke="#c0c0c0" stroke-width="2" d="M220.0592,-287.8314C224.302,-279.7925 229.3823,-270.1666 234.0662,-261.2918"/>
<polygon fill="#c0c0c0" stroke="#c0c0c0" stroke-width="2" points="237.1798,-262.8908 238.7521,-252.4133 230.9891,-259.6235 237.1798,-262.8908"/>
</g>
<!-- 7 -->
<g id="node8" class="node">
<title>7</title>
<path fill="none" stroke="#56c1d8" stroke-width="2" stroke-dasharray="5,2" d="M224.3499,-468C224.3499,-468 158.5905,-468 158.5905,-468 152.5905,-468 146.5905,-462 146.5905,-456 146.5905,-456 146.5905,-444 146.5905,-444 146.5905,-438 152.5905,-432 158.5905,-432 158.5905,-432 224.3499,-432 224.3499,-432 230.3499,-432 236.3499,-438 236.3499,-444 236.3499,-444 236.3499,-456 236.3499,-456 236.3499,-462 230.3499,-468 224.3499,-468"/>
<text text-anchor="middle" x="191.4702" y="-452" font-family="sans" font-size="10.00" fill="#000000">ExposureSnps</text>
<text text-anchor="middle" x="191.4702" y="-442" font-family="sans" font-size="10.00" fill="#000000">Pthreshold: 5e&#45;8</text>
</g>
<!-- 7&#45;&gt;1 -->
<g id="edge7" class="edge">
<title>7&#45;&gt;1</title>
<path fill="none" stroke="#c0c0c0" stroke-width="2" d="M166.6785,-431.9688C155.2888,-422.4699 142.5474,-409.9102 134.4702,-396 113.7929,-360.3903 112.4702,-347.1777 112.4702,-306 112.4702,-306 112.4702,-306 112.4702,-234 112.4702,-190.7597 134.9647,-145.0187 151.6915,-116.9832"/>
<polygon fill="#c0c0c0" stroke="#c0c0c0" stroke-width="2" points="154.8458,-118.5353 157.1021,-108.1834 148.8828,-114.8688 154.8458,-118.5353"/>
</g>
<!-- 7&#45;&gt;5 -->
<g id="edge14" class="edge">
<title>7&#45;&gt;5</title>
<path fill="none" stroke="#c0c0c0" stroke-width="2" d="M191.4702,-431.8314C191.4702,-424.131 191.4702,-414.9743 191.4702,-406.4166"/>
<polygon fill="#c0c0c0" stroke="#c0c0c0" stroke-width="2" points="194.9703,-406.4132 191.4702,-396.4133 187.9703,-406.4133 194.9703,-406.4132"/>
</g>
<!-- 7&#45;&gt;13 -->
<g id="edge23" class="edge">
<title>7&#45;&gt;13</title>
<path fill="none" stroke="#c0c0c0" stroke-width="2" d="M218.3883,-431.8863C229.8157,-422.6147 241.9776,-410.2685 248.4702,-396 268.2309,-352.5731 261.8024,-295.5637 255.2164,-262.0425"/>
<polygon fill="#c0c0c0" stroke="#c0c0c0" stroke-width="2" points="258.5935,-261.094 253.1056,-252.0312 251.7441,-262.5382 258.5935,-261.094"/>
</g>
<!-- 8 -->
<g id="node9" class="node">
<title>8</title>
<path fill="none" stroke="#88d856" stroke-width="2" stroke-dasharray="5,2" d="M420.5093,-396C420.5093,-396 348.4311,-396 348.4311,-396 342.4311,-396 336.4311,-390 336.4311,-384 336.4311,-384 336.4311,-372 336.4311,-372 336.4311,-366 342.4311,-360 348.4311,-360 348.4311,-360 420.5093,-360 420.5093,-360 426.5093,-360 432.5093,-366 432.5093,-372 432.5093,-372 432.5093,-384 432.5093,-384 432.5093,-390 426.5093,-396 420.5093,-396"/>
<text text-anchor="middle" x="384.4702" y="-380" font-family="sans" font-size="10.00" fill="#000000">OutcomeSnps</text>
<text text-anchor="middle" x="384.4702" y="-370" font-family="sans" font-size="10.00" fill="#000000">OutcomeCode: ldl</text>
</g>
<!-- 8&#45;&gt;2 -->
<g id="edge8" class="edge">
<title>8&#45;&gt;2</title>
<path fill="none" stroke="#c0c0c0" stroke-width="2" d="M376.7639,-359.8426C372.72,-349.5209 368.0766,-336.2481 365.4702,-324 349.9133,-250.8937 346.8947,-162.4522 346.434,-118.1582"/>
<polygon fill="#c0c0c0" stroke="#c0c0c0" stroke-width="2" points="349.9338,-118.1118 346.3666,-108.1356 342.934,-118.1589 349.9338,-118.1118"/>
</g>
<!-- 11 -->
<g id="node12" class="node">
<title>11</title>
<path fill="none" stroke="#d88d56" stroke-width="2" stroke-dasharray="5,2" d="M426.8257,-324C426.8257,-324 386.1147,-324 386.1147,-324 380.1147,-324 374.1147,-318 374.1147,-312 374.1147,-312 374.1147,-300 374.1147,-300 374.1147,-294 380.1147,-288 386.1147,-288 386.1147,-288 426.8257,-288 426.8257,-288 432.8257,-288 438.8257,-294 438.8257,-300 438.8257,-300 438.8257,-312 438.8257,-312 438.8257,-318 432.8257,-324 426.8257,-324"/>
<text text-anchor="middle" x="406.4702" y="-303" font-family="sans" font-size="10.00" fill="#000000">ProxySnps</text>
</g>
<!-- 8&#45;&gt;11 -->
<g id="edge20" class="edge">
<title>8&#45;&gt;11</title>
<path fill="none" stroke="#c0c0c0" stroke-width="2" d="M390.0217,-359.8314C392.4005,-352.0463 395.234,-342.7729 397.8735,-334.1347"/>
<polygon fill="#c0c0c0" stroke="#c0c0c0" stroke-width="2" points="401.2689,-334.9996 400.8439,-324.4133 394.5745,-332.954 401.2689,-334.9996"/>
</g>
<!-- 9 -->
<g id="node10" class="node">
<title>9</title>
<path fill="none" stroke="#56d88a" stroke-width="2" stroke-dasharray="5,2" d="M459.7538,-180C459.7538,-180 425.1866,-180 425.1866,-180 419.1866,-180 413.1866,-174 413.1866,-168 413.1866,-168 413.1866,-156 413.1866,-156 413.1866,-150 419.1866,-144 425.1866,-144 425.1866,-144 459.7538,-144 459.7538,-144 465.7538,-144 471.7538,-150 471.7538,-156 471.7538,-156 471.7538,-168 471.7538,-168 471.7538,-174 465.7538,-180 459.7538,-180"/>
<text text-anchor="middle" x="442.4702" y="-159" font-family="sans" font-size="10.00" fill="#000000">MrPresso</text>
</g>
<!-- 9&#45;&gt;2 -->
<g id="edge9" class="edge">
<title>9&#45;&gt;2</title>
<path fill="none" stroke="#c0c0c0" stroke-width="2" d="M418.2454,-143.8314C406.3075,-134.8779 391.7447,-123.9558 378.8642,-114.2955"/>
<polygon fill="#c0c0c0" stroke="#c0c0c0" stroke-width="2" points="380.7874,-111.3629 370.6873,-108.1628 376.5873,-116.9629 380.7874,-111.3629"/>
</g>
<!-- 10 -->
<g id="node11" class="node">
<title>10</title>
<path fill="none" stroke="#56c1d8" stroke-width="2" stroke-dasharray="5,2" d="M379.3499,-468C379.3499,-468 313.5905,-468 313.5905,-468 307.5905,-468 301.5905,-462 301.5905,-456 301.5905,-456 301.5905,-444 301.5905,-444 301.5905,-438 307.5905,-432 313.5905,-432 313.5905,-432 379.3499,-432 379.3499,-432 385.3499,-432 391.3499,-438 391.3499,-444 391.3499,-444 391.3499,-456 391.3499,-456 391.3499,-462 385.3499,-468 379.3499,-468"/>
<text text-anchor="middle" x="346.4702" y="-452" font-family="sans" font-size="10.00" fill="#000000">ExposureSnps</text>
<text text-anchor="middle" x="346.4702" y="-442" font-family="sans" font-size="10.00" fill="#000000">Pthreshold: 5e&#45;6</text>
</g>
<!-- 10&#45;&gt;2 -->
<g id="edge10" class="edge">
<title>10&#45;&gt;2</title>
<path fill="none" stroke="#c0c0c0" stroke-width="2" d="M338.4114,-431.7668C327.2568,-404.8248 308.4702,-352.5405 308.4702,-306 308.4702,-306 308.4702,-306 308.4702,-234 308.4702,-192.3681 323.503,-146.14 334.6583,-117.567"/>
<polygon fill="#c0c0c0" stroke="#c0c0c0" stroke-width="2" points="337.928,-118.817 338.4114,-108.2332 331.4334,-116.2055 337.928,-118.817"/>
</g>
<!-- 10&#45;&gt;8 -->
<g id="edge17" class="edge">
<title>10&#45;&gt;8</title>
<path fill="none" stroke="#c0c0c0" stroke-width="2" d="M356.0592,-431.8314C360.302,-423.7925 365.3823,-414.1666 370.0662,-405.2918"/>
<polygon fill="#c0c0c0" stroke="#c0c0c0" stroke-width="2" points="373.1798,-406.8908 374.7521,-396.4133 366.9891,-403.6235 373.1798,-406.8908"/>
</g>
<!-- 14 -->
<g id="node15" class="node">
<title>14</title>
<path fill="none" stroke="#56d8c1" stroke-width="2" stroke-dasharray="5,2" d="M464.8208,-252C464.8208,-252 424.1197,-252 424.1197,-252 418.1197,-252 412.1197,-246 412.1197,-240 412.1197,-240 412.1197,-228 412.1197,-228 412.1197,-222 418.1197,-216 424.1197,-216 424.1197,-216 464.8208,-216 464.8208,-216 470.8208,-216 476.8208,-222 476.8208,-228 476.8208,-228 476.8208,-240 476.8208,-240 476.8208,-246 470.8208,-252 464.8208,-252"/>
<text text-anchor="middle" x="444.4702" y="-231" font-family="sans" font-size="10.00" fill="#000000">Harmonize</text>
</g>
<!-- 10&#45;&gt;14 -->
<g id="edge24" class="edge">
<title>10&#45;&gt;14</title>
<path fill="none" stroke="#c0c0c0" stroke-width="2" d="M391.4775,-435.1862C410.066,-426.7037 429.9283,-414.0653 441.4702,-396 467.4793,-355.2907 459.9427,-296.2964 452.1632,-261.8696"/>
<polygon fill="#c0c0c0" stroke="#c0c0c0" stroke-width="2" points="455.5336,-260.9167 449.7779,-252.0217 448.7304,-262.5646 455.5336,-260.9167"/>
</g>
<!-- 11&#45;&gt;2 -->
<g id="edge11" class="edge">
<title>11&#45;&gt;2</title>
<path fill="none" stroke="#c0c0c0" stroke-width="2" d="M401.4578,-287.9555C390.9799,-250.235 366.6977,-162.8188 354.2035,-117.8399"/>
<polygon fill="#c0c0c0" stroke="#c0c0c0" stroke-width="2" points="357.5593,-116.8435 351.5105,-108.1451 350.8147,-118.717 357.5593,-116.8435"/>
</g>
<!-- 11&#45;&gt;14 -->
<g id="edge25" class="edge">
<title>11&#45;&gt;14</title>
<path fill="none" stroke="#c0c0c0" stroke-width="2" d="M416.0592,-287.8314C420.302,-279.7925 425.3823,-270.1666 430.0662,-261.2918"/>
<polygon fill="#c0c0c0" stroke="#c0c0c0" stroke-width="2" points="433.1798,-262.8908 434.7521,-252.4133 426.9891,-259.6235 433.1798,-262.8908"/>
</g>
<!-- 12 -->
<g id="node13" class="node">
<title>12</title>
<path fill="none" stroke="#568ad8" stroke-width="2" stroke-dasharray="5,2" d="M206.4702,-540C206.4702,-540 176.4702,-540 176.4702,-540 170.4702,-540 164.4702,-534 164.4702,-528 164.4702,-528 164.4702,-516 164.4702,-516 164.4702,-510 170.4702,-504 176.4702,-504 176.4702,-504 206.4702,-504 206.4702,-504 212.4702,-504 218.4702,-510 218.4702,-516 218.4702,-516 218.4702,-528 218.4702,-528 218.4702,-534 212.4702,-540 206.4702,-540"/>
<text text-anchor="middle" x="191.4702" y="-519" font-family="sans" font-size="10.00" fill="#000000">gzip</text>
</g>
<!-- 12&#45;&gt;3 -->
<g id="edge12" class="edge">
<title>12&#45;&gt;3</title>
<path fill="none" stroke="#c0c0c0" stroke-width="2" d="M172.5993,-503.7623C146.2895,-478.3354 98.4748,-432.1253 68.7075,-403.3569"/>
<polygon fill="#c0c0c0" stroke="#c0c0c0" stroke-width="2" points="70.811,-400.5223 61.1879,-396.0896 65.9464,-405.5558 70.811,-400.5223"/>
</g>
<!-- 12&#45;&gt;7 -->
<g id="edge16" class="edge">
<title>12&#45;&gt;7</title>
<path fill="none" stroke="#c0c0c0" stroke-width="2" d="M191.4702,-503.8314C191.4702,-496.131 191.4702,-486.9743 191.4702,-478.4166"/>
<polygon fill="#c0c0c0" stroke="#c0c0c0" stroke-width="2" points="194.9703,-478.4132 191.4702,-468.4133 187.9703,-478.4133 194.9703,-478.4132"/>
</g>
<!-- 12&#45;&gt;10 -->
<g id="edge19" class="edge">
<title>12&#45;&gt;10</title>
<path fill="none" stroke="#c0c0c0" stroke-width="2" d="M218.8243,-509.2936C240.7295,-499.1183 272.0013,-484.592 298.1092,-472.4645"/>
<polygon fill="#c0c0c0" stroke="#c0c0c0" stroke-width="2" points="299.8726,-475.5046 307.4674,-468.1174 296.9236,-469.1561 299.8726,-475.5046"/>
</g>
<!-- 13&#45;&gt;4 -->
<g id="edge13" class="edge">
<title>13&#45;&gt;4</title>
<path fill="none" stroke="#c0c0c0" stroke-width="2" d="M248.2179,-215.8314C248.1109,-208.131 247.9837,-198.9743 247.8649,-190.4166"/>
<polygon fill="#c0c0c0" stroke="#c0c0c0" stroke-width="2" points="251.3646,-190.3637 247.726,-180.4133 244.3653,-190.4609 251.3646,-190.3637"/>
</g>
<!-- 14&#45;&gt;9 -->
<g id="edge18" class="edge">
<title>14&#45;&gt;9</title>
<path fill="none" stroke="#c0c0c0" stroke-width="2" d="M443.9655,-215.8314C443.7516,-208.131 443.4973,-198.9743 443.2596,-190.4166"/>
<polygon fill="#c0c0c0" stroke="#c0c0c0" stroke-width="2" points="446.7581,-190.3122 442.9817,-180.4133 439.7608,-190.5066 446.7581,-190.3122"/>
</g>
<!-- 15 -->
<g id="node16" class="node">
<title>15</title>
<path fill="none" stroke="#59d856" stroke-width="2" stroke-dasharray="5,2" d="M232.5861,-612C232.5861,-612 150.3543,-612 150.3543,-612 144.3543,-612 138.3543,-606 138.3543,-600 138.3543,-600 138.3543,-588 138.3543,-588 138.3543,-582 144.3543,-576 150.3543,-576 150.3543,-576 232.5861,-576 232.5861,-576 238.5861,-576 244.5861,-582 244.5861,-588 244.5861,-588 244.5861,-600 244.5861,-600 244.5861,-606 238.5861,-612 232.5861,-612"/>
<text text-anchor="middle" x="191.4702" y="-596" font-family="sans" font-size="10.00" fill="#000000">clump</text>
<text text-anchor="middle" x="191.4702" y="-586" font-family="sans" font-size="10.00" fill="#000000">ExposureCode: load</text>
</g>
<!-- 15&#45;&gt;12 -->
<g id="edge21" class="edge">
<title>15&#45;&gt;12</title>
<path fill="none" stroke="#c0c0c0" stroke-width="2" d="M191.4702,-575.8314C191.4702,-568.131 191.4702,-558.9743 191.4702,-550.4166"/>
<polygon fill="#c0c0c0" stroke="#c0c0c0" stroke-width="2" points="194.9703,-550.4132 191.4702,-540.4133 187.9703,-550.4133 194.9703,-550.4132"/>
</g>
</g>
</svg>
