<?xml version="1.0" encoding="UTF-8" standalone="no"?>
<!DOCTYPE svg PUBLIC "-//W3C//DTD SVG 1.1//EN"
 "http://www.w3.org/Graphics/SVG/1.1/DTD/svg11.dtd">
<!-- Generated by graphviz version 2.40.1 (20161225.0304)
 -->
<!-- Title: snakemake_dag Pages: 1 -->
<svg width="376pt" height="620pt"
 viewBox="0.00 0.00 375.61 620.00" xmlns="http://www.w3.org/2000/svg" xmlns:xlink="http://www.w3.org/1999/xlink">
<g id="graph0" class="graph" transform="scale(1 1) rotate(0) translate(4 616)">
<title>snakemake_dag</title>
<polygon fill="#ffffff" stroke="transparent" points="-4,4 -4,-616 371.6098,-616 371.6098,4 -4,4"/>
<!-- 0 -->
<g id="node1" class="node">
<title>0</title>
<path fill="none" stroke="#afd856" stroke-width="2" stroke-dasharray="5,2" d="M173.435,-36C173.435,-36 143.435,-36 143.435,-36 137.435,-36 131.435,-30 131.435,-24 131.435,-24 131.435,-12 131.435,-12 131.435,-6 137.435,0 143.435,0 143.435,0 173.435,0 173.435,0 179.435,0 185.435,-6 185.435,-12 185.435,-12 185.435,-24 185.435,-24 185.435,-30 179.435,-36 173.435,-36"/>
<text text-anchor="middle" x="158.435" y="-15" font-family="sans" font-size="10.00" fill="#000000">all</text>
</g>
<!-- 1 -->
<g id="node2" class="node">
<title>1</title>
<path fill="none" stroke="#70d856" stroke-width="2" stroke-dasharray="5,2" d="M102.9043,-108C102.9043,-108 55.9657,-108 55.9657,-108 49.9657,-108 43.9657,-102 43.9657,-96 43.9657,-96 43.9657,-84 43.9657,-84 43.9657,-78 49.9657,-72 55.9657,-72 55.9657,-72 102.9043,-72 102.9043,-72 108.9043,-72 114.9043,-78 114.9043,-84 114.9043,-84 114.9043,-96 114.9043,-96 114.9043,-102 108.9043,-108 102.9043,-108"/>
<text text-anchor="middle" x="79.435" y="-87" font-family="sans" font-size="10.00" fill="#000000">html_Report</text>
</g>
<!-- 1&#45;&gt;0 -->
<g id="edge1" class="edge">
<title>1&#45;&gt;0</title>
<path fill="none" stroke="#c0c0c0" stroke-width="2" d="M99.37,-71.8314C108.9133,-63.1337 120.4949,-52.5783 130.8656,-43.1265"/>
<polygon fill="#c0c0c0" stroke="#c0c0c0" stroke-width="2" points="133.473,-45.4857 138.5063,-36.1628 128.7578,-40.3121 133.473,-45.4857"/>
</g>
<!-- 2 -->
<g id="node3" class="node">
<title>2</title>
<path fill="none" stroke="#70d856" stroke-width="2" stroke-dasharray="5,2" d="M260.9043,-108C260.9043,-108 213.9657,-108 213.9657,-108 207.9657,-108 201.9657,-102 201.9657,-96 201.9657,-96 201.9657,-84 201.9657,-84 201.9657,-78 207.9657,-72 213.9657,-72 213.9657,-72 260.9043,-72 260.9043,-72 266.9043,-72 272.9043,-78 272.9043,-84 272.9043,-84 272.9043,-96 272.9043,-96 272.9043,-102 266.9043,-108 260.9043,-108"/>
<text text-anchor="middle" x="237.435" y="-87" font-family="sans" font-size="10.00" fill="#000000">html_Report</text>
</g>
<!-- 2&#45;&gt;0 -->
<g id="edge2" class="edge">
<title>2&#45;&gt;0</title>
<path fill="none" stroke="#c0c0c0" stroke-width="2" d="M217.5,-71.8314C207.9567,-63.1337 196.3751,-52.5783 186.0044,-43.1265"/>
<polygon fill="#c0c0c0" stroke="#c0c0c0" stroke-width="2" points="188.1122,-40.3121 178.3637,-36.1628 183.397,-45.4857 188.1122,-40.3121"/>
</g>
<!-- 3 -->
<g id="node4" class="node">
<title>3</title>
<path fill="none" stroke="#d85656" stroke-width="2" stroke-dasharray="5,2" d="M157.3147,-468C157.3147,-468 91.5553,-468 91.5553,-468 85.5553,-468 79.5553,-462 79.5553,-456 79.5553,-456 79.5553,-444 79.5553,-444 79.5553,-438 85.5553,-432 91.5553,-432 91.5553,-432 157.3147,-432 157.3147,-432 163.3147,-432 169.3147,-438 169.3147,-444 169.3147,-444 169.3147,-456 169.3147,-456 169.3147,-462 163.3147,-468 157.3147,-468"/>
<text text-anchor="middle" x="124.435" y="-452" font-family="sans" font-size="10.00" fill="#000000">ExposureSnps</text>
<text text-anchor="middle" x="124.435" y="-442" font-family="sans" font-size="10.00" fill="#000000">Pthreshold: 5e&#45;8</text>
</g>
<!-- 3&#45;&gt;1 -->
<g id="edge3" class="edge">
<title>3&#45;&gt;1</title>
<path fill="none" stroke="#c0c0c0" stroke-width="2" d="M79.5473,-436.7164C58.5883,-428.297 35.0859,-415.2735 20.435,-396 -4.305,-363.454 1.435,-346.8816 1.435,-306 1.435,-306 1.435,-306 1.435,-234 1.435,-188.3933 32.0587,-143.4038 54.9292,-116.1636"/>
<polygon fill="#c0c0c0" stroke="#c0c0c0" stroke-width="2" points="57.8383,-118.1506 61.7356,-108.2986 52.5452,-113.5699 57.8383,-118.1506"/>
</g>
<!-- 6 -->
<g id="node7" class="node">
<title>6</title>
<path fill="none" stroke="#56d8a9" stroke-width="2" stroke-dasharray="5,2" d="M121.8755,-396C121.8755,-396 40.9946,-396 40.9946,-396 34.9946,-396 28.9946,-390 28.9946,-384 28.9946,-384 28.9946,-372 28.9946,-372 28.9946,-366 34.9946,-360 40.9946,-360 40.9946,-360 121.8755,-360 121.8755,-360 127.8755,-360 133.8755,-366 133.8755,-372 133.8755,-372 133.8755,-384 133.8755,-384 133.8755,-390 127.8755,-396 121.8755,-396"/>
<text text-anchor="middle" x="81.435" y="-380" font-family="sans" font-size="10.00" fill="#000000">OutcomeSnps</text>
<text text-anchor="middle" x="81.435" y="-370" font-family="sans" font-size="10.00" fill="#000000">OutcomeCode: load</text>
</g>
<!-- 3&#45;&gt;6 -->
<g id="edge14" class="edge">
<title>3&#45;&gt;6</title>
<path fill="none" stroke="#c0c0c0" stroke-width="2" d="M113.5843,-431.8314C108.7328,-423.7079 102.9133,-413.9637 97.567,-405.0118"/>
<polygon fill="#c0c0c0" stroke="#c0c0c0" stroke-width="2" points="100.5642,-403.2041 92.4318,-396.4133 94.5544,-406.7933 100.5642,-403.2041"/>
</g>
<!-- 12 -->
<g id="node13" class="node">
<title>12</title>
<path fill="none" stroke="#d88d56" stroke-width="2" stroke-dasharray="5,2" d="M159.7856,-252C159.7856,-252 119.0844,-252 119.0844,-252 113.0844,-252 107.0844,-246 107.0844,-240 107.0844,-240 107.0844,-228 107.0844,-228 107.0844,-222 113.0844,-216 119.0844,-216 119.0844,-216 159.7856,-216 159.7856,-216 165.7856,-216 171.7856,-222 171.7856,-228 171.7856,-228 171.7856,-240 171.7856,-240 171.7856,-246 165.7856,-252 159.7856,-252"/>
<text text-anchor="middle" x="139.435" y="-231" font-family="sans" font-size="10.00" fill="#000000">Harmonize</text>
</g>
<!-- 3&#45;&gt;12 -->
<g id="edge21" class="edge">
<title>3&#45;&gt;12</title>
<path fill="none" stroke="#c0c0c0" stroke-width="2" d="M132.1029,-431.8756C136.0489,-421.5642 140.4405,-408.2907 142.435,-396 149.9648,-349.5994 146.3858,-294.7469 142.9925,-262.2486"/>
<polygon fill="#c0c0c0" stroke="#c0c0c0" stroke-width="2" points="146.4509,-261.6799 141.8651,-252.1289 139.4939,-262.455 146.4509,-261.6799"/>
</g>
<!-- 4 -->
<g id="node5" class="node">
<title>4</title>
<path fill="none" stroke="#56c9d8" stroke-width="2" stroke-dasharray="5,2" d="M155.7186,-180C155.7186,-180 121.1514,-180 121.1514,-180 115.1514,-180 109.1514,-174 109.1514,-168 109.1514,-168 109.1514,-156 109.1514,-156 109.1514,-150 115.1514,-144 121.1514,-144 121.1514,-144 155.7186,-144 155.7186,-144 161.7186,-144 167.7186,-150 167.7186,-156 167.7186,-156 167.7186,-168 167.7186,-168 167.7186,-174 161.7186,-180 155.7186,-180"/>
<text text-anchor="middle" x="138.435" y="-159" font-family="sans" font-size="10.00" fill="#000000">MrPresso</text>
</g>
<!-- 4&#45;&gt;1 -->
<g id="edge4" class="edge">
<title>4&#45;&gt;1</title>
<path fill="none" stroke="#c0c0c0" stroke-width="2" d="M123.5468,-143.8314C116.682,-135.454 108.4049,-125.3531 100.8839,-116.1749"/>
<polygon fill="#c0c0c0" stroke="#c0c0c0" stroke-width="2" points="103.5691,-113.9297 94.5237,-108.4133 98.1547,-118.3665 103.5691,-113.9297"/>
</g>
<!-- 5 -->
<g id="node6" class="node">
<title>5</title>
<path fill="none" stroke="#5692d8" stroke-width="2" stroke-dasharray="5,2" d="M121.7905,-324C121.7905,-324 81.0795,-324 81.0795,-324 75.0795,-324 69.0795,-318 69.0795,-312 69.0795,-312 69.0795,-300 69.0795,-300 69.0795,-294 75.0795,-288 81.0795,-288 81.0795,-288 121.7905,-288 121.7905,-288 127.7905,-288 133.7905,-294 133.7905,-300 133.7905,-300 133.7905,-312 133.7905,-312 133.7905,-318 127.7905,-324 121.7905,-324"/>
<text text-anchor="middle" x="101.435" y="-303" font-family="sans" font-size="10.00" fill="#000000">ProxySnps</text>
</g>
<!-- 5&#45;&gt;1 -->
<g id="edge5" class="edge">
<title>5&#45;&gt;1</title>
<path fill="none" stroke="#c0c0c0" stroke-width="2" d="M99.5971,-287.9555C95.7633,-250.3144 86.8892,-163.1867 82.2995,-118.1246"/>
<polygon fill="#c0c0c0" stroke="#c0c0c0" stroke-width="2" points="85.7785,-117.7389 81.2831,-108.1451 78.8145,-118.4483 85.7785,-117.7389"/>
</g>
<!-- 5&#45;&gt;12 -->
<g id="edge20" class="edge">
<title>5&#45;&gt;12</title>
<path fill="none" stroke="#c0c0c0" stroke-width="2" d="M111.024,-287.8314C115.2668,-279.7925 120.3471,-270.1666 125.031,-261.2918"/>
<polygon fill="#c0c0c0" stroke="#c0c0c0" stroke-width="2" points="128.1446,-262.8908 129.7169,-252.4133 121.9539,-259.6235 128.1446,-262.8908"/>
</g>
<!-- 6&#45;&gt;1 -->
<g id="edge6" class="edge">
<title>6&#45;&gt;1</title>
<path fill="none" stroke="#c0c0c0" stroke-width="2" d="M72.2774,-359.5129C67.7337,-349.3118 62.7349,-336.2593 60.435,-324 46.6535,-250.5383 62.3655,-162.2506 72.3887,-118.0725"/>
<polygon fill="#c0c0c0" stroke="#c0c0c0" stroke-width="2" points="75.8569,-118.6123 74.7322,-108.0773 69.0418,-117.0143 75.8569,-118.6123"/>
</g>
<!-- 6&#45;&gt;5 -->
<g id="edge13" class="edge">
<title>6&#45;&gt;5</title>
<path fill="none" stroke="#c0c0c0" stroke-width="2" d="M86.4818,-359.8314C88.6444,-352.0463 91.2203,-342.7729 93.6198,-334.1347"/>
<polygon fill="#c0c0c0" stroke="#c0c0c0" stroke-width="2" points="97.016,-334.9852 96.3202,-324.4133 90.2714,-333.1117 97.016,-334.9852"/>
</g>
<!-- 7 -->
<g id="node8" class="node">
<title>7</title>
<path fill="none" stroke="#56c9d8" stroke-width="2" stroke-dasharray="5,2" d="M350.7186,-180C350.7186,-180 316.1514,-180 316.1514,-180 310.1514,-180 304.1514,-174 304.1514,-168 304.1514,-168 304.1514,-156 304.1514,-156 304.1514,-150 310.1514,-144 316.1514,-144 316.1514,-144 350.7186,-144 350.7186,-144 356.7186,-144 362.7186,-150 362.7186,-156 362.7186,-156 362.7186,-168 362.7186,-168 362.7186,-174 356.7186,-180 350.7186,-180"/>
<text text-anchor="middle" x="333.435" y="-159" font-family="sans" font-size="10.00" fill="#000000">MrPresso</text>
</g>
<!-- 7&#45;&gt;2 -->
<g id="edge7" class="edge">
<title>7&#45;&gt;2</title>
<path fill="none" stroke="#c0c0c0" stroke-width="2" d="M309.2102,-143.8314C297.2722,-134.8779 282.7094,-123.9558 269.829,-114.2955"/>
<polygon fill="#c0c0c0" stroke="#c0c0c0" stroke-width="2" points="271.7521,-111.3629 261.6521,-108.1628 267.5521,-116.9629 271.7521,-111.3629"/>
</g>
<!-- 8 -->
<g id="node9" class="node">
<title>8</title>
<path fill="none" stroke="#56d8a9" stroke-width="2" stroke-dasharray="5,2" d="M319.8755,-396C319.8755,-396 238.9946,-396 238.9946,-396 232.9946,-396 226.9946,-390 226.9946,-384 226.9946,-384 226.9946,-372 226.9946,-372 226.9946,-366 232.9946,-360 238.9946,-360 238.9946,-360 319.8755,-360 319.8755,-360 325.8755,-360 331.8755,-366 331.8755,-372 331.8755,-372 331.8755,-384 331.8755,-384 331.8755,-390 325.8755,-396 319.8755,-396"/>
<text text-anchor="middle" x="279.435" y="-380" font-family="sans" font-size="10.00" fill="#000000">OutcomeSnps</text>
<text text-anchor="middle" x="279.435" y="-370" font-family="sans" font-size="10.00" fill="#000000">OutcomeCode: load</text>
</g>
<!-- 8&#45;&gt;2 -->
<g id="edge8" class="edge">
<title>8&#45;&gt;2</title>
<path fill="none" stroke="#c0c0c0" stroke-width="2" d="M269.8097,-359.5197C264.9518,-349.3206 259.461,-336.2678 256.435,-324 238.535,-251.4318 236.5302,-162.7575 236.8331,-118.2882"/>
<polygon fill="#c0c0c0" stroke="#c0c0c0" stroke-width="2" points="240.3335,-118.2629 236.9475,-108.2237 233.334,-118.1833 240.3335,-118.2629"/>
</g>
<!-- 9 -->
<g id="node10" class="node">
<title>9</title>
<path fill="none" stroke="#5692d8" stroke-width="2" stroke-dasharray="5,2" d="M317.7905,-324C317.7905,-324 277.0795,-324 277.0795,-324 271.0795,-324 265.0795,-318 265.0795,-312 265.0795,-312 265.0795,-300 265.0795,-300 265.0795,-294 271.0795,-288 277.0795,-288 277.0795,-288 317.7905,-288 317.7905,-288 323.7905,-288 329.7905,-294 329.7905,-300 329.7905,-300 329.7905,-312 329.7905,-312 329.7905,-318 323.7905,-324 317.7905,-324"/>
<text text-anchor="middle" x="297.435" y="-303" font-family="sans" font-size="10.00" fill="#000000">ProxySnps</text>
</g>
<!-- 8&#45;&gt;9 -->
<g id="edge17" class="edge">
<title>8&#45;&gt;9</title>
<path fill="none" stroke="#c0c0c0" stroke-width="2" d="M283.9772,-359.8314C285.9234,-352.0463 288.2418,-342.7729 290.4013,-334.1347"/>
<polygon fill="#c0c0c0" stroke="#c0c0c0" stroke-width="2" points="293.8018,-334.9636 292.8317,-324.4133 287.0108,-333.2658 293.8018,-334.9636"/>
</g>
<!-- 9&#45;&gt;2 -->
<g id="edge9" class="edge">
<title>9&#45;&gt;2</title>
<path fill="none" stroke="#c0c0c0" stroke-width="2" d="M292.4226,-287.9555C281.9447,-250.235 257.6625,-162.8188 245.1683,-117.8399"/>
<polygon fill="#c0c0c0" stroke="#c0c0c0" stroke-width="2" points="248.5241,-116.8435 242.4753,-108.1451 241.7795,-118.717 248.5241,-116.8435"/>
</g>
<!-- 13 -->
<g id="node14" class="node">
<title>13</title>
<path fill="none" stroke="#d88d56" stroke-width="2" stroke-dasharray="5,2" d="M355.7856,-252C355.7856,-252 315.0844,-252 315.0844,-252 309.0844,-252 303.0844,-246 303.0844,-240 303.0844,-240 303.0844,-228 303.0844,-228 303.0844,-222 309.0844,-216 315.0844,-216 315.0844,-216 355.7856,-216 355.7856,-216 361.7856,-216 367.7856,-222 367.7856,-228 367.7856,-228 367.7856,-240 367.7856,-240 367.7856,-246 361.7856,-252 355.7856,-252"/>
<text text-anchor="middle" x="335.435" y="-231" font-family="sans" font-size="10.00" fill="#000000">Harmonize</text>
</g>
<!-- 9&#45;&gt;13 -->
<g id="edge22" class="edge">
<title>9&#45;&gt;13</title>
<path fill="none" stroke="#c0c0c0" stroke-width="2" d="M307.024,-287.8314C311.2668,-279.7925 316.3471,-270.1666 321.031,-261.2918"/>
<polygon fill="#c0c0c0" stroke="#c0c0c0" stroke-width="2" points="324.1446,-262.8908 325.7169,-252.4133 317.9539,-259.6235 324.1446,-262.8908"/>
</g>
<!-- 10 -->
<g id="node11" class="node">
<title>10</title>
<path fill="none" stroke="#d85656" stroke-width="2" stroke-dasharray="5,2" d="M269.3147,-468C269.3147,-468 203.5553,-468 203.5553,-468 197.5553,-468 191.5553,-462 191.5553,-456 191.5553,-456 191.5553,-444 191.5553,-444 191.5553,-438 197.5553,-432 203.5553,-432 203.5553,-432 269.3147,-432 269.3147,-432 275.3147,-432 281.3147,-438 281.3147,-444 281.3147,-444 281.3147,-456 281.3147,-456 281.3147,-462 275.3147,-468 269.3147,-468"/>
<text text-anchor="middle" x="236.435" y="-452" font-family="sans" font-size="10.00" fill="#000000">ExposureSnps</text>
<text text-anchor="middle" x="236.435" y="-442" font-family="sans" font-size="10.00" fill="#000000">Pthreshold: 5e&#45;6</text>
</g>
<!-- 10&#45;&gt;2 -->
<g id="edge10" class="edge">
<title>10&#45;&gt;2</title>
<path fill="none" stroke="#c0c0c0" stroke-width="2" d="M228.5883,-431.746C217.7272,-404.7781 199.435,-352.4617 199.435,-306 199.435,-306 199.435,-306 199.435,-234 199.435,-192.3681 214.4678,-146.14 225.6231,-117.567"/>
<polygon fill="#c0c0c0" stroke="#c0c0c0" stroke-width="2" points="228.8928,-118.817 229.3762,-108.2332 222.3982,-116.2055 228.8928,-118.817"/>
</g>
<!-- 10&#45;&gt;8 -->
<g id="edge16" class="edge">
<title>10&#45;&gt;8</title>
<path fill="none" stroke="#c0c0c0" stroke-width="2" d="M247.2857,-431.8314C252.1373,-423.7079 257.9567,-413.9637 263.303,-405.0118"/>
<polygon fill="#c0c0c0" stroke="#c0c0c0" stroke-width="2" points="266.3156,-406.7933 268.4382,-396.4133 260.3058,-403.2041 266.3156,-406.7933"/>
</g>
<!-- 10&#45;&gt;13 -->
<g id="edge23" class="edge">
<title>10&#45;&gt;13</title>
<path fill="none" stroke="#c0c0c0" stroke-width="2" d="M281.2276,-438.6375C303.1254,-430.5792 327.495,-417.2992 340.435,-396 365.4594,-354.81 354.7595,-296.2183 344.9371,-261.9494"/>
<polygon fill="#c0c0c0" stroke="#c0c0c0" stroke-width="2" points="348.2131,-260.6922 341.9574,-252.1414 341.5154,-262.727 348.2131,-260.6922"/>
</g>
<!-- 11 -->
<g id="node12" class="node">
<title>11</title>
<path fill="none" stroke="#56d873" stroke-width="2" stroke-dasharray="5,2" d="M192.435,-540C192.435,-540 162.435,-540 162.435,-540 156.435,-540 150.435,-534 150.435,-528 150.435,-528 150.435,-516 150.435,-516 150.435,-510 156.435,-504 162.435,-504 162.435,-504 192.435,-504 192.435,-504 198.435,-504 204.435,-510 204.435,-516 204.435,-516 204.435,-528 204.435,-528 204.435,-534 198.435,-540 192.435,-540"/>
<text text-anchor="middle" x="177.435" y="-519" font-family="sans" font-size="10.00" fill="#000000">gzip</text>
</g>
<!-- 11&#45;&gt;3 -->
<g id="edge11" class="edge">
<title>11&#45;&gt;3</title>
<path fill="none" stroke="#c0c0c0" stroke-width="2" d="M164.0609,-503.8314C158.0188,-495.6232 150.7587,-485.7606 144.1129,-476.7323"/>
<polygon fill="#c0c0c0" stroke="#c0c0c0" stroke-width="2" points="146.7361,-474.3918 137.9892,-468.4133 141.0987,-478.5415 146.7361,-474.3918"/>
</g>
<!-- 11&#45;&gt;10 -->
<g id="edge18" class="edge">
<title>11&#45;&gt;10</title>
<path fill="none" stroke="#c0c0c0" stroke-width="2" d="M192.3232,-503.8314C199.188,-495.454 207.4651,-485.3531 214.9861,-476.1749"/>
<polygon fill="#c0c0c0" stroke="#c0c0c0" stroke-width="2" points="217.7153,-478.3665 221.3464,-468.4133 212.3009,-473.9297 217.7153,-478.3665"/>
</g>
<!-- 12&#45;&gt;4 -->
<g id="edge12" class="edge">
<title>12&#45;&gt;4</title>
<path fill="none" stroke="#c0c0c0" stroke-width="2" d="M139.1827,-215.8314C139.0757,-208.131 138.9485,-198.9743 138.8297,-190.4166"/>
<polygon fill="#c0c0c0" stroke="#c0c0c0" stroke-width="2" points="142.3294,-190.3637 138.6907,-180.4133 135.3301,-190.4609 142.3294,-190.3637"/>
</g>
<!-- 13&#45;&gt;7 -->
<g id="edge15" class="edge">
<title>13&#45;&gt;7</title>
<path fill="none" stroke="#c0c0c0" stroke-width="2" d="M334.9303,-215.8314C334.7164,-208.131 334.4621,-198.9743 334.2244,-190.4166"/>
<polygon fill="#c0c0c0" stroke="#c0c0c0" stroke-width="2" points="337.7229,-190.3122 333.9465,-180.4133 330.7256,-190.5066 337.7229,-190.3122"/>
</g>
<!-- 14 -->
<g id="node15" class="node">
<title>14</title>
<path fill="none" stroke="#d8cb56" stroke-width="2" stroke-dasharray="5,2" d="M218.4283,-612C218.4283,-612 136.4417,-612 136.4417,-612 130.4417,-612 124.4417,-606 124.4417,-600 124.4417,-600 124.4417,-588 124.4417,-588 124.4417,-582 130.4417,-576 136.4417,-576 136.4417,-576 218.4283,-576 218.4283,-576 224.4283,-576 230.4283,-582 230.4283,-588 230.4283,-588 230.4283,-600 230.4283,-600 230.4283,-606 224.4283,-612 218.4283,-612"/>
<text text-anchor="middle" x="177.435" y="-596" font-family="sans" font-size="10.00" fill="#000000">clump</text>
<text text-anchor="middle" x="177.435" y="-586" font-family="sans" font-size="10.00" fill="#000000">ExposureCode: alcc</text>
</g>
<!-- 14&#45;&gt;11 -->
<g id="edge19" class="edge">
<title>14&#45;&gt;11</title>
<path fill="none" stroke="#c0c0c0" stroke-width="2" d="M177.435,-575.8314C177.435,-568.131 177.435,-558.9743 177.435,-550.4166"/>
<polygon fill="#c0c0c0" stroke="#c0c0c0" stroke-width="2" points="180.9351,-550.4132 177.435,-540.4133 173.9351,-550.4133 180.9351,-550.4132"/>
</g>
</g>
</svg>
