<?xml version="1.0" encoding="UTF-8" standalone="no"?>
<!DOCTYPE svg PUBLIC "-//W3C//DTD SVG 1.1//EN"
 "http://www.w3.org/Graphics/SVG/1.1/DTD/svg11.dtd">
<!-- Generated by graphviz version 2.38.0 (20140413.2041)
 -->
<!-- Title: snakemake_dag Pages: 1 -->
<svg width="737pt" height="764pt"
 viewBox="0.00 0.00 737.16 764.00" xmlns="http://www.w3.org/2000/svg" xmlns:xlink="http://www.w3.org/1999/xlink">
<g id="graph0" class="graph" transform="scale(1 1) rotate(0) translate(4 760)">
<title>snakemake_dag</title>
<polygon fill="white" stroke="none" points="-4,4 -4,-760 733.156,-760 733.156,4 -4,4"/>
<!-- 0 -->
<g id="node1" class="node"><title>0</title>
<path fill="none" stroke="#56d0d8" stroke-width="2" d="M184,-36C184,-36 154,-36 154,-36 148,-36 142,-30 142,-24 142,-24 142,-12 142,-12 142,-6 148,-0 154,-0 154,-0 184,-0 184,-0 190,-0 196,-6 196,-12 196,-12 196,-24 196,-24 196,-30 190,-36 184,-36"/>
<text text-anchor="middle" x="169" y="-15" font-family="sans" font-size="10.00">all</text>
</g>
<!-- 1 -->
<g id="node2" class="node"><title>1</title>
<path fill="none" stroke="#56d86b" stroke-width="2" d="M192.469,-108C192.469,-108 145.531,-108 145.531,-108 139.531,-108 133.531,-102 133.531,-96 133.531,-96 133.531,-84 133.531,-84 133.531,-78 139.531,-72 145.531,-72 145.531,-72 192.469,-72 192.469,-72 198.469,-72 204.469,-78 204.469,-84 204.469,-84 204.469,-96 204.469,-96 204.469,-102 198.469,-108 192.469,-108"/>
<text text-anchor="middle" x="169" y="-87" font-family="sans" font-size="10.00">html_Report</text>
</g>
<!-- 1&#45;&gt;0 -->
<g id="edge1" class="edge"><title>1&#45;&gt;0</title>
<path fill="none" stroke="grey" stroke-width="2" d="M169,-71.6966C169,-63.9827 169,-54.7125 169,-46.1124"/>
<polygon fill="grey" stroke="grey" stroke-width="2" points="172.5,-46.1043 169,-36.1043 165.5,-46.1044 172.5,-46.1043"/>
</g>
<!-- 2 -->
<g id="node3" class="node"><title>2</title>
<path fill="none" stroke="#b6d856" stroke-width="2" d="M149.44,-612C149.44,-612 88.5595,-612 88.5595,-612 82.5595,-612 76.5595,-606 76.5595,-600 76.5595,-600 76.5595,-588 76.5595,-588 76.5595,-582 82.5595,-576 88.5595,-576 88.5595,-576 149.44,-576 149.44,-576 155.44,-576 161.44,-582 161.44,-588 161.44,-588 161.44,-600 161.44,-600 161.44,-606 155.44,-612 149.44,-612"/>
<text text-anchor="middle" x="119" y="-591" font-family="sans" font-size="10.00">manhattan_plot</text>
</g>
<!-- 2&#45;&gt;0 -->
<g id="edge2" class="edge"><title>2&#45;&gt;0</title>
<path fill="none" stroke="grey" stroke-width="2" d="M90.1934,-575.852C54.975,-552.454 0,-506.967 0,-451 0,-451 0,-451 0,-161 0,-92.3788 82.683,-50.2803 132.382,-31.174"/>
<polygon fill="grey" stroke="grey" stroke-width="2" points="133.692,-34.4212 141.847,-27.6583 131.254,-27.8592 133.692,-34.4212"/>
</g>
<!-- 3 -->
<g id="node4" class="node"><title>3</title>
<path fill="none" stroke="#56d86b" stroke-width="2" d="M545.469,-108C545.469,-108 498.531,-108 498.531,-108 492.531,-108 486.531,-102 486.531,-96 486.531,-96 486.531,-84 486.531,-84 486.531,-78 492.531,-72 498.531,-72 498.531,-72 545.469,-72 545.469,-72 551.469,-72 557.469,-78 557.469,-84 557.469,-84 557.469,-96 557.469,-96 557.469,-102 551.469,-108 545.469,-108"/>
<text text-anchor="middle" x="522" y="-87" font-family="sans" font-size="10.00">html_Report</text>
</g>
<!-- 3&#45;&gt;0 -->
<g id="edge3" class="edge"><title>3&#45;&gt;0</title>
<path fill="none" stroke="grey" stroke-width="2" d="M486.537,-81.9676C419.518,-68.6778 274.866,-39.9932 206.389,-26.4143"/>
<polygon fill="grey" stroke="grey" stroke-width="2" points="206.957,-22.9587 196.467,-24.4467 205.595,-29.825 206.957,-22.9587"/>
</g>
<!-- 4 -->
<g id="node5" class="node"><title>4</title>
<path fill="none" stroke="#d8a456" stroke-width="2" d="M256.88,-612C256.88,-612 191.12,-612 191.12,-612 185.12,-612 179.12,-606 179.12,-600 179.12,-600 179.12,-588 179.12,-588 179.12,-582 185.12,-576 191.12,-576 191.12,-576 256.88,-576 256.88,-576 262.88,-576 268.88,-582 268.88,-588 268.88,-588 268.88,-600 268.88,-600 268.88,-606 262.88,-612 256.88,-612"/>
<text text-anchor="middle" x="224" y="-596" font-family="sans" font-size="10.00">ExposureSnps</text>
<text text-anchor="middle" x="224" y="-586" font-family="sans" font-size="10.00">Pthreshold: 5e&#45;6</text>
</g>
<!-- 4&#45;&gt;1 -->
<g id="edge4" class="edge"><title>4&#45;&gt;1</title>
<path fill="none" stroke="grey" stroke-width="2" d="M190.747,-575.892C137.247,-547.246 38,-488.986 38,-451 38,-451 38,-451 38,-233 38,-188.058 55.4134,-176.927 86,-144 97.0723,-132.08 111.381,-121.699 124.99,-113.36"/>
<polygon fill="grey" stroke="grey" stroke-width="2" points="126.949,-116.268 133.791,-108.179 123.398,-110.235 126.949,-116.268"/>
</g>
<!-- 5 -->
<g id="node6" class="node"><title>5</title>
<path fill="none" stroke="#d87d56" stroke-width="2" d="M308.865,-540C308.865,-540 253.135,-540 253.135,-540 247.135,-540 241.135,-534 241.135,-528 241.135,-528 241.135,-516 241.135,-516 241.135,-510 247.135,-504 253.135,-504 253.135,-504 308.865,-504 308.865,-504 314.865,-504 320.865,-510 320.865,-516 320.865,-516 320.865,-528 320.865,-528 320.865,-534 314.865,-540 308.865,-540"/>
<text text-anchor="middle" x="281" y="-519" font-family="sans" font-size="10.00">OutcomeSnps</text>
</g>
<!-- 4&#45;&gt;5 -->
<g id="edge18" class="edge"><title>4&#45;&gt;5</title>
<path fill="none" stroke="grey" stroke-width="2" d="M238.09,-575.697C244.923,-567.305 253.257,-557.07 260.756,-547.861"/>
<polygon fill="grey" stroke="grey" stroke-width="2" points="263.472,-550.069 267.072,-540.104 258.044,-545.649 263.472,-550.069"/>
</g>
<!-- 17 -->
<g id="node18" class="node"><title>17</title>
<path fill="none" stroke="#d85656" stroke-width="2" d="M193.351,-324C193.351,-324 152.649,-324 152.649,-324 146.649,-324 140.649,-318 140.649,-312 140.649,-312 140.649,-300 140.649,-300 140.649,-294 146.649,-288 152.649,-288 152.649,-288 193.351,-288 193.351,-288 199.351,-288 205.351,-294 205.351,-300 205.351,-300 205.351,-312 205.351,-312 205.351,-318 199.351,-324 193.351,-324"/>
<text text-anchor="middle" x="173" y="-303" font-family="sans" font-size="10.00">Harmonize</text>
</g>
<!-- 4&#45;&gt;17 -->
<g id="edge36" class="edge"><title>4&#45;&gt;17</title>
<path fill="none" stroke="grey" stroke-width="2" d="M219.887,-575.68C214.258,-551.616 204.049,-506.66 197,-468 188.483,-421.291 180.808,-366.547 176.539,-334.432"/>
<polygon fill="grey" stroke="grey" stroke-width="2" points="180,-333.911 175.225,-324.453 173.06,-334.824 180,-333.911"/>
</g>
<!-- 5&#45;&gt;1 -->
<g id="edge5" class="edge"><title>5&#45;&gt;1</title>
<path fill="none" stroke="grey" stroke-width="2" d="M257.695,-503.819C247.099,-494.538 235.68,-482.094 230,-468 176.132,-334.33 308.863,-272.185 243,-144 236.375,-131.106 224.996,-120.648 213.121,-112.534"/>
<polygon fill="grey" stroke="grey" stroke-width="2" points="214.768,-109.435 204.447,-107.04 211.022,-115.348 214.768,-109.435"/>
</g>
<!-- 8 -->
<g id="node9" class="node"><title>8</title>
<path fill="none" stroke="#56d892" stroke-width="2" d="M335.974,-396C335.974,-396 264.026,-396 264.026,-396 258.026,-396 252.026,-390 252.026,-384 252.026,-384 252.026,-372 252.026,-372 252.026,-366 258.026,-360 264.026,-360 264.026,-360 335.974,-360 335.974,-360 341.974,-360 347.974,-366 347.974,-372 347.974,-372 347.974,-384 347.974,-384 347.974,-390 341.974,-396 335.974,-396"/>
<text text-anchor="middle" x="300" y="-375" font-family="sans" font-size="10.00">ExtractProxySnps</text>
</g>
<!-- 5&#45;&gt;8 -->
<g id="edge23" class="edge"><title>5&#45;&gt;8</title>
<path fill="none" stroke="grey" stroke-width="2" d="M304.305,-503.819C314.901,-494.538 326.32,-482.094 332,-468 340.467,-446.99 330.516,-422.779 319.538,-404.918"/>
<polygon fill="grey" stroke="grey" stroke-width="2" points="322.222,-402.63 313.797,-396.207 316.378,-406.483 322.222,-402.63"/>
</g>
<!-- 18 -->
<g id="node19" class="node"><title>18</title>
<path fill="none" stroke="#68d856" stroke-width="2" d="M310.808,-468C310.808,-468 251.192,-468 251.192,-468 245.192,-468 239.192,-462 239.192,-456 239.192,-456 239.192,-444 239.192,-444 239.192,-438 245.192,-432 251.192,-432 251.192,-432 310.808,-432 310.808,-432 316.808,-432 322.808,-438 322.808,-444 322.808,-444 322.808,-456 322.808,-456 322.808,-462 316.808,-468 310.808,-468"/>
<text text-anchor="middle" x="281" y="-447" font-family="sans" font-size="10.00">FindProxySnps</text>
</g>
<!-- 5&#45;&gt;18 -->
<g id="edge37" class="edge"><title>5&#45;&gt;18</title>
<path fill="none" stroke="grey" stroke-width="2" d="M281,-503.697C281,-495.983 281,-486.712 281,-478.112"/>
<polygon fill="grey" stroke="grey" stroke-width="2" points="284.5,-478.104 281,-468.104 277.5,-478.104 284.5,-478.104"/>
</g>
<!-- 6 -->
<g id="node7" class="node"><title>6</title>
<path fill="none" stroke="#56a9d8" stroke-width="2" d="M221.875,-180C221.875,-180 116.125,-180 116.125,-180 110.125,-180 104.125,-174 104.125,-168 104.125,-168 104.125,-156 104.125,-156 104.125,-150 110.125,-144 116.125,-144 116.125,-144 221.875,-144 221.875,-144 227.875,-144 233.875,-150 233.875,-156 233.875,-156 233.875,-168 233.875,-168 233.875,-174 227.875,-180 221.875,-180"/>
<text text-anchor="middle" x="169" y="-159" font-family="sans" font-size="10.00">MRPRESSO_wo_outliers</text>
</g>
<!-- 6&#45;&gt;1 -->
<g id="edge6" class="edge"><title>6&#45;&gt;1</title>
<path fill="none" stroke="grey" stroke-width="2" d="M169,-143.697C169,-135.983 169,-126.712 169,-118.112"/>
<polygon fill="grey" stroke="grey" stroke-width="2" points="172.5,-118.104 169,-108.104 165.5,-118.104 172.5,-118.104"/>
</g>
<!-- 7 -->
<g id="node8" class="node"><title>7</title>
<path fill="none" stroke="#d8cb56" stroke-width="2" d="M186.284,-252C186.284,-252 151.716,-252 151.716,-252 145.716,-252 139.716,-246 139.716,-240 139.716,-240 139.716,-228 139.716,-228 139.716,-222 145.716,-216 151.716,-216 151.716,-216 186.284,-216 186.284,-216 192.284,-216 198.284,-222 198.284,-228 198.284,-228 198.284,-240 198.284,-240 198.284,-246 192.284,-252 186.284,-252"/>
<text text-anchor="middle" x="169" y="-231" font-family="sans" font-size="10.00">MrPresso</text>
</g>
<!-- 7&#45;&gt;1 -->
<g id="edge7" class="edge"><title>7&#45;&gt;1</title>
<path fill="none" stroke="grey" stroke-width="2" d="M139.69,-220.4C123.324,-211.654 104.389,-198.272 95,-180 87.6878,-165.769 87.6878,-158.231 95,-144 101.625,-131.106 113.004,-120.648 124.879,-112.534"/>
<polygon fill="grey" stroke="grey" stroke-width="2" points="126.978,-115.348 133.553,-107.04 123.232,-109.435 126.978,-115.348"/>
</g>
<!-- 7&#45;&gt;6 -->
<g id="edge20" class="edge"><title>7&#45;&gt;6</title>
<path fill="none" stroke="grey" stroke-width="2" d="M169,-215.697C169,-207.983 169,-198.712 169,-190.112"/>
<polygon fill="grey" stroke="grey" stroke-width="2" points="172.5,-190.104 169,-180.104 165.5,-190.104 172.5,-190.104"/>
</g>
<!-- 8&#45;&gt;1 -->
<g id="edge8" class="edge"><title>8&#45;&gt;1</title>
<path fill="none" stroke="grey" stroke-width="2" d="M303.393,-359.895C310.582,-318.59 323.072,-211.815 276,-144 261.481,-123.083 236.264,-110.037 213.956,-102.124"/>
<polygon fill="grey" stroke="grey" stroke-width="2" points="214.88,-98.7442 204.287,-98.94 212.69,-105.393 214.88,-98.7442"/>
</g>
<!-- 8&#45;&gt;17 -->
<g id="edge35" class="edge"><title>8&#45;&gt;17</title>
<path fill="none" stroke="grey" stroke-width="2" d="M268.932,-359.876C252.173,-350.639 231.294,-339.131 213.298,-329.212"/>
<polygon fill="grey" stroke="grey" stroke-width="2" points="214.634,-325.952 204.187,-324.19 211.255,-332.082 214.634,-325.952"/>
</g>
<!-- 9 -->
<g id="node10" class="node"><title>9</title>
<path fill="none" stroke="#56d8b9" stroke-width="2" d="M261.601,-756C261.601,-756 184.399,-756 184.399,-756 178.399,-756 172.399,-750 172.399,-744 172.399,-744 172.399,-732 172.399,-732 172.399,-726 178.399,-720 184.399,-720 184.399,-720 261.601,-720 261.601,-720 267.601,-720 273.601,-726 273.601,-732 273.601,-732 273.601,-744 273.601,-744 273.601,-750 267.601,-756 261.601,-756"/>
<text text-anchor="middle" x="223" y="-740" font-family="sans" font-size="10.00">FormatExposure</text>
<text text-anchor="middle" x="223" y="-730" font-family="sans" font-size="10.00">ExposureCode: crp</text>
</g>
<!-- 9&#45;&gt;2 -->
<g id="edge9" class="edge"><title>9&#45;&gt;2</title>
<path fill="none" stroke="grey" stroke-width="2" d="M210.455,-719.871C192.34,-695.137 158.727,-649.242 137.685,-620.512"/>
<polygon fill="grey" stroke="grey" stroke-width="2" points="140.322,-618.189 131.589,-612.189 134.674,-622.325 140.322,-618.189"/>
</g>
<!-- 9&#45;&gt;4 -->
<g id="edge16" class="edge"><title>9&#45;&gt;4</title>
<path fill="none" stroke="grey" stroke-width="2" d="M219.752,-719.888C217.954,-709.542 215.905,-696.063 215,-684 213.803,-668.045 213.656,-663.943 215,-648 215.717,-639.499 217.069,-630.312 218.512,-622.012"/>
<polygon fill="grey" stroke="grey" stroke-width="2" points="221.969,-622.562 220.346,-612.092 215.086,-621.289 221.969,-622.562"/>
</g>
<!-- 10 -->
<g id="node11" class="node"><title>10</title>
<path fill="none" stroke="#567bd8" stroke-width="2" d="M266,-684C266,-684 236,-684 236,-684 230,-684 224,-678 224,-672 224,-672 224,-660 224,-660 224,-654 230,-648 236,-648 236,-648 266,-648 266,-648 272,-648 278,-654 278,-660 278,-660 278,-672 278,-672 278,-678 272,-684 266,-684"/>
<text text-anchor="middle" x="251" y="-663" font-family="sans" font-size="10.00">clump</text>
</g>
<!-- 9&#45;&gt;10 -->
<g id="edge25" class="edge"><title>9&#45;&gt;10</title>
<path fill="none" stroke="grey" stroke-width="2" d="M229.921,-719.697C233.075,-711.813 236.878,-702.304 240.381,-693.546"/>
<polygon fill="grey" stroke="grey" stroke-width="2" points="243.694,-694.689 244.158,-684.104 237.195,-692.089 243.694,-694.689"/>
</g>
<!-- 14 -->
<g id="node15" class="node"><title>14</title>
<path fill="none" stroke="#d8a456" stroke-width="2" d="M536.88,-612C536.88,-612 471.12,-612 471.12,-612 465.12,-612 459.12,-606 459.12,-600 459.12,-600 459.12,-588 459.12,-588 459.12,-582 465.12,-576 471.12,-576 471.12,-576 536.88,-576 536.88,-576 542.88,-576 548.88,-582 548.88,-588 548.88,-588 548.88,-600 548.88,-600 548.88,-606 542.88,-612 536.88,-612"/>
<text text-anchor="middle" x="504" y="-596" font-family="sans" font-size="10.00">ExposureSnps</text>
<text text-anchor="middle" x="504" y="-586" font-family="sans" font-size="10.00">Pthreshold: 5e&#45;8</text>
</g>
<!-- 9&#45;&gt;14 -->
<g id="edge30" class="edge"><title>9&#45;&gt;14</title>
<path fill="none" stroke="grey" stroke-width="2" d="M256.895,-719.871C308.056,-694.018 404.968,-645.045 461.018,-616.72"/>
<polygon fill="grey" stroke="grey" stroke-width="2" points="462.638,-619.823 469.985,-612.189 459.481,-613.576 462.638,-619.823"/>
</g>
<!-- 10&#45;&gt;2 -->
<g id="edge10" class="edge"><title>10&#45;&gt;2</title>
<path fill="none" stroke="grey" stroke-width="2" d="M223.969,-650.666C205.572,-640.91 180.882,-627.816 160.069,-616.779"/>
<polygon fill="grey" stroke="grey" stroke-width="2" points="161.591,-613.625 151.117,-612.032 158.312,-619.809 161.591,-613.625"/>
</g>
<!-- 10&#45;&gt;4 -->
<g id="edge17" class="edge"><title>10&#45;&gt;4</title>
<path fill="none" stroke="grey" stroke-width="2" d="M244.326,-647.697C241.285,-639.813 237.617,-630.304 234.239,-621.546"/>
<polygon fill="grey" stroke="grey" stroke-width="2" points="237.462,-620.175 230.597,-612.104 230.931,-622.694 237.462,-620.175"/>
</g>
<!-- 10&#45;&gt;14 -->
<g id="edge31" class="edge"><title>10&#45;&gt;14</title>
<path fill="none" stroke="grey" stroke-width="2" d="M278.144,-658.181C314.749,-648.896 382.178,-631.481 449.352,-612.124"/>
<polygon fill="grey" stroke="grey" stroke-width="2" points="450.626,-615.399 459.258,-609.255 448.679,-608.675 450.626,-615.399"/>
</g>
<!-- 11 -->
<g id="node12" class="node"><title>11</title>
<path fill="none" stroke="#56a9d8" stroke-width="2" d="M686.875,-180C686.875,-180 581.125,-180 581.125,-180 575.125,-180 569.125,-174 569.125,-168 569.125,-168 569.125,-156 569.125,-156 569.125,-150 575.125,-144 581.125,-144 581.125,-144 686.875,-144 686.875,-144 692.875,-144 698.875,-150 698.875,-156 698.875,-156 698.875,-168 698.875,-168 698.875,-174 692.875,-180 686.875,-180"/>
<text text-anchor="middle" x="634" y="-159" font-family="sans" font-size="10.00">MRPRESSO_wo_outliers</text>
</g>
<!-- 11&#45;&gt;3 -->
<g id="edge11" class="edge"><title>11&#45;&gt;3</title>
<path fill="none" stroke="grey" stroke-width="2" d="M606.602,-143.876C592.093,-134.808 574.084,-123.552 558.415,-113.759"/>
<polygon fill="grey" stroke="grey" stroke-width="2" points="559.839,-110.522 549.504,-108.19 556.129,-116.458 559.839,-110.522"/>
</g>
<!-- 12 -->
<g id="node13" class="node"><title>12</title>
<path fill="none" stroke="#d8cb56" stroke-width="2" d="M616.284,-252C616.284,-252 581.716,-252 581.716,-252 575.716,-252 569.716,-246 569.716,-240 569.716,-240 569.716,-228 569.716,-228 569.716,-222 575.716,-216 581.716,-216 581.716,-216 616.284,-216 616.284,-216 622.284,-216 628.284,-222 628.284,-228 628.284,-228 628.284,-240 628.284,-240 628.284,-246 622.284,-252 616.284,-252"/>
<text text-anchor="middle" x="599" y="-231" font-family="sans" font-size="10.00">MrPresso</text>
</g>
<!-- 12&#45;&gt;3 -->
<g id="edge12" class="edge"><title>12&#45;&gt;3</title>
<path fill="none" stroke="grey" stroke-width="2" d="M584.566,-215.549C576.699,-205.534 567.139,-192.499 560,-180 548.593,-160.029 538.519,-135.967 531.615,-117.9"/>
<polygon fill="grey" stroke="grey" stroke-width="2" points="534.802,-116.431 528.024,-108.288 528.245,-118.881 534.802,-116.431"/>
</g>
<!-- 12&#45;&gt;11 -->
<g id="edge26" class="edge"><title>12&#45;&gt;11</title>
<path fill="none" stroke="grey" stroke-width="2" d="M607.652,-215.697C611.636,-207.728 616.45,-198.1 620.868,-189.264"/>
<polygon fill="grey" stroke="grey" stroke-width="2" points="624.106,-190.614 625.448,-180.104 617.845,-187.483 624.106,-190.614"/>
</g>
<!-- 13 -->
<g id="node14" class="node"><title>13</title>
<path fill="none" stroke="#d87d56" stroke-width="2" d="M530.865,-540C530.865,-540 475.135,-540 475.135,-540 469.135,-540 463.135,-534 463.135,-528 463.135,-528 463.135,-516 463.135,-516 463.135,-510 469.135,-504 475.135,-504 475.135,-504 530.865,-504 530.865,-504 536.865,-504 542.865,-510 542.865,-516 542.865,-516 542.865,-528 542.865,-528 542.865,-534 536.865,-540 530.865,-540"/>
<text text-anchor="middle" x="503" y="-519" font-family="sans" font-size="10.00">OutcomeSnps</text>
</g>
<!-- 13&#45;&gt;3 -->
<g id="edge13" class="edge"><title>13&#45;&gt;3</title>
<path fill="none" stroke="grey" stroke-width="2" d="M495.31,-503.907C484.206,-477.623 465,-425.447 465,-379 465,-379 465,-379 465,-233 465,-189.801 488,-144.186 504.78,-116.655"/>
<polygon fill="grey" stroke="grey" stroke-width="2" points="507.835,-118.372 510.19,-108.042 501.907,-114.648 507.835,-118.372"/>
</g>
<!-- 15 -->
<g id="node16" class="node"><title>15</title>
<path fill="none" stroke="#56d892" stroke-width="2" d="M576.974,-396C576.974,-396 505.026,-396 505.026,-396 499.026,-396 493.026,-390 493.026,-384 493.026,-384 493.026,-372 493.026,-372 493.026,-366 499.026,-360 505.026,-360 505.026,-360 576.974,-360 576.974,-360 582.974,-360 588.974,-366 588.974,-372 588.974,-372 588.974,-384 588.974,-384 588.974,-390 582.974,-396 576.974,-396"/>
<text text-anchor="middle" x="541" y="-375" font-family="sans" font-size="10.00">ExtractProxySnps</text>
</g>
<!-- 13&#45;&gt;15 -->
<g id="edge33" class="edge"><title>13&#45;&gt;15</title>
<path fill="none" stroke="grey" stroke-width="2" d="M505.97,-503.771C509.246,-485.719 514.994,-456.618 522,-432 524.435,-423.445 527.54,-414.275 530.53,-406.008"/>
<polygon fill="grey" stroke="grey" stroke-width="2" points="533.87,-407.068 534.069,-396.475 527.308,-404.632 533.87,-407.068"/>
</g>
<!-- 20 -->
<g id="node21" class="node"><title>20</title>
<path fill="none" stroke="#68d856" stroke-width="2" d="M602.808,-468C602.808,-468 543.192,-468 543.192,-468 537.192,-468 531.192,-462 531.192,-456 531.192,-456 531.192,-444 531.192,-444 531.192,-438 537.192,-432 543.192,-432 543.192,-432 602.808,-432 602.808,-432 608.808,-432 614.808,-438 614.808,-444 614.808,-444 614.808,-456 614.808,-456 614.808,-462 608.808,-468 602.808,-468"/>
<text text-anchor="middle" x="573" y="-447" font-family="sans" font-size="10.00">FindProxySnps</text>
</g>
<!-- 13&#45;&gt;20 -->
<g id="edge40" class="edge"><title>13&#45;&gt;20</title>
<path fill="none" stroke="grey" stroke-width="2" d="M520.303,-503.697C528.865,-495.135 539.344,-484.656 548.696,-475.304"/>
<polygon fill="grey" stroke="grey" stroke-width="2" points="551.299,-477.65 555.896,-468.104 546.35,-472.701 551.299,-477.65"/>
</g>
<!-- 14&#45;&gt;3 -->
<g id="edge14" class="edge"><title>14&#45;&gt;3</title>
<path fill="none" stroke="grey" stroke-width="2" d="M548.859,-585.262C613.979,-571.165 727,-534.649 727,-451 727,-451 727,-451 727,-233 727,-192.553 735.622,-173.546 708,-144 671.881,-105.366 609.794,-94.2094 567.368,-91.3431"/>
<polygon fill="grey" stroke="grey" stroke-width="2" points="567.477,-87.8439 557.3,-90.7925 567.094,-94.8335 567.477,-87.8439"/>
</g>
<!-- 14&#45;&gt;13 -->
<g id="edge28" class="edge"><title>14&#45;&gt;13</title>
<path fill="none" stroke="grey" stroke-width="2" d="M503.753,-575.697C503.643,-567.983 503.51,-558.712 503.387,-550.112"/>
<polygon fill="grey" stroke="grey" stroke-width="2" points="506.887,-550.053 503.244,-540.104 499.888,-550.153 506.887,-550.053"/>
</g>
<!-- 19 -->
<g id="node20" class="node"><title>19</title>
<path fill="none" stroke="#d85656" stroke-width="2" d="M619.351,-324C619.351,-324 578.649,-324 578.649,-324 572.649,-324 566.649,-318 566.649,-312 566.649,-312 566.649,-300 566.649,-300 566.649,-294 572.649,-288 578.649,-288 578.649,-288 619.351,-288 619.351,-288 625.351,-288 631.351,-294 631.351,-300 631.351,-300 631.351,-312 631.351,-312 631.351,-318 625.351,-324 619.351,-324"/>
<text text-anchor="middle" x="599" y="-303" font-family="sans" font-size="10.00">Harmonize</text>
</g>
<!-- 14&#45;&gt;19 -->
<g id="edge38" class="edge"><title>14&#45;&gt;19</title>
<path fill="none" stroke="grey" stroke-width="2" d="M529.583,-575.844C558.806,-554.534 605.025,-515.166 624,-468 642.083,-423.052 624.777,-366.179 611.343,-333.459"/>
<polygon fill="grey" stroke="grey" stroke-width="2" points="614.497,-331.933 607.341,-324.12 608.063,-334.69 614.497,-331.933"/>
</g>
<!-- 15&#45;&gt;3 -->
<g id="edge15" class="edge"><title>15&#45;&gt;3</title>
<path fill="none" stroke="grey" stroke-width="2" d="M539.868,-359.966C536.701,-312.291 527.726,-177.185 523.836,-118.63"/>
<polygon fill="grey" stroke="grey" stroke-width="2" points="527.305,-118.052 523.15,-108.306 520.32,-118.516 527.305,-118.052"/>
</g>
<!-- 15&#45;&gt;19 -->
<g id="edge39" class="edge"><title>15&#45;&gt;19</title>
<path fill="none" stroke="grey" stroke-width="2" d="M555.337,-359.697C562.291,-351.305 570.77,-341.07 578.401,-331.861"/>
<polygon fill="grey" stroke="grey" stroke-width="2" points="581.143,-334.038 584.828,-324.104 575.753,-329.571 581.143,-334.038"/>
</g>
<!-- 16 -->
<g id="node17" class="node"><title>16</title>
<path fill="none" stroke="#8fd856" stroke-width="2" stroke-dasharray="5,2" d="M429.44,-612C429.44,-612 348.56,-612 348.56,-612 342.56,-612 336.56,-606 336.56,-600 336.56,-600 336.56,-588 336.56,-588 336.56,-582 342.56,-576 348.56,-576 348.56,-576 429.44,-576 429.44,-576 435.44,-576 441.44,-582 441.44,-588 441.44,-588 441.44,-600 441.44,-600 441.44,-606 435.44,-612 429.44,-612"/>
<text text-anchor="middle" x="389" y="-596" font-family="sans" font-size="10.00">FormatOutcome</text>
<text text-anchor="middle" x="389" y="-586" font-family="sans" font-size="10.00">OutcomeCode: load</text>
</g>
<!-- 16&#45;&gt;5 -->
<g id="edge19" class="edge"><title>16&#45;&gt;5</title>
<path fill="none" stroke="grey" stroke-width="2" d="M362.58,-575.876C348.59,-566.808 331.224,-555.552 316.114,-545.759"/>
<polygon fill="grey" stroke="grey" stroke-width="2" points="317.817,-542.692 307.521,-540.19 314.009,-548.566 317.817,-542.692"/>
</g>
<!-- 16&#45;&gt;8 -->
<g id="edge24" class="edge"><title>16&#45;&gt;8</title>
<path fill="none" stroke="grey" stroke-width="2" d="M387.343,-575.559C383.843,-544.896 373.783,-480.032 348,-432 342.516,-421.783 334.643,-411.966 326.856,-403.617"/>
<polygon fill="grey" stroke="grey" stroke-width="2" points="329.29,-401.101 319.799,-396.394 324.283,-405.992 329.29,-401.101"/>
</g>
<!-- 16&#45;&gt;13 -->
<g id="edge29" class="edge"><title>16&#45;&gt;13</title>
<path fill="none" stroke="grey" stroke-width="2" d="M416.888,-575.876C431.793,-566.724 450.329,-555.342 466.382,-545.485"/>
<polygon fill="grey" stroke="grey" stroke-width="2" points="468.315,-548.405 475.005,-540.19 464.652,-542.44 468.315,-548.405"/>
</g>
<!-- 16&#45;&gt;15 -->
<g id="edge34" class="edge"><title>16&#45;&gt;15</title>
<path fill="none" stroke="grey" stroke-width="2" d="M401.182,-575.849C427.864,-538.284 491.582,-448.575 522.94,-404.426"/>
<polygon fill="grey" stroke="grey" stroke-width="2" points="525.823,-406.412 528.76,-396.232 520.116,-402.358 525.823,-406.412"/>
</g>
<!-- 17&#45;&gt;7 -->
<g id="edge21" class="edge"><title>17&#45;&gt;7</title>
<path fill="none" stroke="grey" stroke-width="2" d="M172.011,-287.697C171.57,-279.983 171.041,-270.712 170.549,-262.112"/>
<polygon fill="grey" stroke="grey" stroke-width="2" points="174.042,-261.888 169.977,-252.104 167.054,-262.288 174.042,-261.888"/>
</g>
<!-- 18&#45;&gt;8 -->
<g id="edge22" class="edge"><title>18&#45;&gt;8</title>
<path fill="none" stroke="grey" stroke-width="2" d="M285.697,-431.697C287.813,-423.898 290.362,-414.509 292.718,-405.829"/>
<polygon fill="grey" stroke="grey" stroke-width="2" points="296.116,-406.672 295.357,-396.104 289.36,-404.838 296.116,-406.672"/>
</g>
<!-- 19&#45;&gt;12 -->
<g id="edge27" class="edge"><title>19&#45;&gt;12</title>
<path fill="none" stroke="grey" stroke-width="2" d="M599,-287.697C599,-279.983 599,-270.712 599,-262.112"/>
<polygon fill="grey" stroke="grey" stroke-width="2" points="602.5,-262.104 599,-252.104 595.5,-262.104 602.5,-262.104"/>
</g>
<!-- 20&#45;&gt;15 -->
<g id="edge32" class="edge"><title>20&#45;&gt;15</title>
<path fill="none" stroke="grey" stroke-width="2" d="M565.09,-431.697C561.447,-423.728 557.046,-414.1 553.006,-405.264"/>
<polygon fill="grey" stroke="grey" stroke-width="2" points="556.16,-403.744 548.819,-396.104 549.794,-406.654 556.16,-403.744"/>
</g>
</g>
</svg>
