<?xml version="1.0" encoding="UTF-8" standalone="no"?>
<!DOCTYPE svg PUBLIC "-//W3C//DTD SVG 1.1//EN"
 "http://www.w3.org/Graphics/SVG/1.1/DTD/svg11.dtd">
<!-- Generated by graphviz version 2.40.1 (20161225.0304)
 -->
<!-- Title: snakemake_dag Pages: 1 -->
<svg width="744pt" height="548pt"
 viewBox="0.00 0.00 744.42 548.00" xmlns="http://www.w3.org/2000/svg" xmlns:xlink="http://www.w3.org/1999/xlink">
<g id="graph0" class="graph" transform="scale(1 1) rotate(0) translate(4 544)">
<title>snakemake_dag</title>
<polygon fill="#ffffff" stroke="transparent" points="-4,4 -4,-544 740.4175,-544 740.4175,4 -4,4"/>
<!-- 0 -->
<g id="node1" class="node">
<title>0</title>
<path fill="none" stroke="#d6d856" stroke-width="2" stroke-dasharray="5,2" d="M380.2088,-36C380.2088,-36 350.2088,-36 350.2088,-36 344.2088,-36 338.2088,-30 338.2088,-24 338.2088,-24 338.2088,-12 338.2088,-12 338.2088,-6 344.2088,0 350.2088,0 350.2088,0 380.2088,0 380.2088,0 386.2088,0 392.2088,-6 392.2088,-12 392.2088,-12 392.2088,-24 392.2088,-24 392.2088,-30 386.2088,-36 380.2088,-36"/>
<text text-anchor="middle" x="365.2088" y="-15" font-family="sans" font-size="10.00" fill="#000000">all</text>
</g>
<!-- 1 -->
<g id="node2" class="node">
<title>1</title>
<path fill="none" stroke="#56d89a" stroke-width="2" stroke-dasharray="5,2" d="M155.6781,-108C155.6781,-108 108.7394,-108 108.7394,-108 102.7394,-108 96.7394,-102 96.7394,-96 96.7394,-96 96.7394,-84 96.7394,-84 96.7394,-78 102.7394,-72 108.7394,-72 108.7394,-72 155.6781,-72 155.6781,-72 161.6781,-72 167.6781,-78 167.6781,-84 167.6781,-84 167.6781,-96 167.6781,-96 167.6781,-102 161.6781,-108 155.6781,-108"/>
<text text-anchor="middle" x="132.2088" y="-87" font-family="sans" font-size="10.00" fill="#000000">html_Report</text>
</g>
<!-- 1&#45;&gt;0 -->
<g id="edge1" class="edge">
<title>1&#45;&gt;0</title>
<path fill="none" stroke="#c0c0c0" stroke-width="2" d="M167.5964,-79.0647C210.9416,-65.6705 284.0263,-43.0864 328.129,-29.4581"/>
<polygon fill="#c0c0c0" stroke="#c0c0c0" stroke-width="2" points="329.3589,-32.7414 337.8798,-26.445 327.2922,-26.0535 329.3589,-32.7414"/>
</g>
<!-- 2 -->
<g id="node3" class="node">
<title>2</title>
<path fill="none" stroke="#56d89a" stroke-width="2" stroke-dasharray="5,2" d="M463.6781,-108C463.6781,-108 416.7394,-108 416.7394,-108 410.7394,-108 404.7394,-102 404.7394,-96 404.7394,-96 404.7394,-84 404.7394,-84 404.7394,-78 410.7394,-72 416.7394,-72 416.7394,-72 463.6781,-72 463.6781,-72 469.6781,-72 475.6781,-78 475.6781,-84 475.6781,-84 475.6781,-96 475.6781,-96 475.6781,-102 469.6781,-108 463.6781,-108"/>
<text text-anchor="middle" x="440.2088" y="-87" font-family="sans" font-size="10.00" fill="#000000">html_Report</text>
</g>
<!-- 2&#45;&gt;0 -->
<g id="edge2" class="edge">
<title>2&#45;&gt;0</title>
<path fill="none" stroke="#c0c0c0" stroke-width="2" d="M421.2831,-71.8314C412.2231,-63.1337 401.2279,-52.5783 391.3822,-43.1265"/>
<polygon fill="#c0c0c0" stroke="#c0c0c0" stroke-width="2" points="393.7661,-40.5633 384.1284,-36.1628 388.9184,-45.613 393.7661,-40.5633"/>
</g>
<!-- 3 -->
<g id="node4" class="node">
<title>3</title>
<path fill="none" stroke="#56d89a" stroke-width="2" stroke-dasharray="5,2" d="M317.6781,-108C317.6781,-108 270.7394,-108 270.7394,-108 264.7394,-108 258.7394,-102 258.7394,-96 258.7394,-96 258.7394,-84 258.7394,-84 258.7394,-78 264.7394,-72 270.7394,-72 270.7394,-72 317.6781,-72 317.6781,-72 323.6781,-72 329.6781,-78 329.6781,-84 329.6781,-84 329.6781,-96 329.6781,-96 329.6781,-102 323.6781,-108 317.6781,-108"/>
<text text-anchor="middle" x="294.2088" y="-87" font-family="sans" font-size="10.00" fill="#000000">html_Report</text>
</g>
<!-- 3&#45;&gt;0 -->
<g id="edge3" class="edge">
<title>3&#45;&gt;0</title>
<path fill="none" stroke="#c0c0c0" stroke-width="2" d="M312.1251,-71.8314C320.553,-63.2848 330.7498,-52.9443 339.9448,-43.6198"/>
<polygon fill="#c0c0c0" stroke="#c0c0c0" stroke-width="2" points="342.5219,-45.9912 347.0512,-36.4133 337.5376,-41.0761 342.5219,-45.9912"/>
</g>
<!-- 4 -->
<g id="node5" class="node">
<title>4</title>
<path fill="none" stroke="#56d89a" stroke-width="2" stroke-dasharray="5,2" d="M627.6781,-108C627.6781,-108 580.7394,-108 580.7394,-108 574.7394,-108 568.7394,-102 568.7394,-96 568.7394,-96 568.7394,-84 568.7394,-84 568.7394,-78 574.7394,-72 580.7394,-72 580.7394,-72 627.6781,-72 627.6781,-72 633.6781,-72 639.6781,-78 639.6781,-84 639.6781,-84 639.6781,-96 639.6781,-96 639.6781,-102 633.6781,-108 627.6781,-108"/>
<text text-anchor="middle" x="604.2088" y="-87" font-family="sans" font-size="10.00" fill="#000000">html_Report</text>
</g>
<!-- 4&#45;&gt;0 -->
<g id="edge4" class="edge">
<title>4&#45;&gt;0</title>
<path fill="none" stroke="#c0c0c0" stroke-width="2" d="M568.9435,-79.3762C524.278,-65.9204 447.6683,-42.8414 402.1983,-29.1433"/>
<polygon fill="#c0c0c0" stroke="#c0c0c0" stroke-width="2" points="403.0278,-25.7379 392.4432,-26.2045 401.0086,-32.4403 403.0278,-25.7379"/>
</g>
<!-- 5 -->
<g id="node6" class="node">
<title>5</title>
<path fill="none" stroke="#97d856" stroke-width="2" stroke-dasharray="5,2" d="M110.9279,-324C110.9279,-324 27.4896,-324 27.4896,-324 21.4896,-324 15.4896,-318 15.4896,-312 15.4896,-312 15.4896,-300 15.4896,-300 15.4896,-294 21.4896,-288 27.4896,-288 27.4896,-288 110.9279,-288 110.9279,-288 116.9279,-288 122.9279,-294 122.9279,-300 122.9279,-300 122.9279,-312 122.9279,-312 122.9279,-318 116.9279,-324 110.9279,-324"/>
<text text-anchor="middle" x="69.2088" y="-308" font-family="sans" font-size="10.00" fill="#000000">OutcomeSnps</text>
<text text-anchor="middle" x="69.2088" y="-298" font-family="sans" font-size="10.00" fill="#000000">OutcomeCode: aaos</text>
</g>
<!-- 5&#45;&gt;1 -->
<g id="edge5" class="edge">
<title>5&#45;&gt;1</title>
<path fill="none" stroke="#c0c0c0" stroke-width="2" d="M78.7195,-287.8876C83.8437,-277.5799 89.9662,-264.3062 94.2088,-252 109.9429,-206.3609 121.3277,-151.2757 127.3368,-118.524"/>
<polygon fill="#c0c0c0" stroke="#c0c0c0" stroke-width="2" points="130.8467,-118.7799 129.1672,-108.319 123.9567,-117.544 130.8467,-118.7799"/>
</g>
<!-- 15 -->
<g id="node16" class="node">
<title>15</title>
<path fill="none" stroke="#d85656" stroke-width="2" stroke-dasharray="5,2" d="M73.5593,-252C73.5593,-252 32.8582,-252 32.8582,-252 26.8582,-252 20.8582,-246 20.8582,-240 20.8582,-240 20.8582,-228 20.8582,-228 20.8582,-222 26.8582,-216 32.8582,-216 32.8582,-216 73.5593,-216 73.5593,-216 79.5593,-216 85.5593,-222 85.5593,-228 85.5593,-228 85.5593,-240 85.5593,-240 85.5593,-246 79.5593,-252 73.5593,-252"/>
<text text-anchor="middle" x="53.2088" y="-231" font-family="sans" font-size="10.00" fill="#000000">Harmonize</text>
</g>
<!-- 5&#45;&gt;15 -->
<g id="edge28" class="edge">
<title>5&#45;&gt;15</title>
<path fill="none" stroke="#c0c0c0" stroke-width="2" d="M65.1713,-287.8314C63.4601,-280.131 61.4253,-270.9743 59.5236,-262.4166"/>
<polygon fill="#c0c0c0" stroke="#c0c0c0" stroke-width="2" points="62.8866,-261.4159 57.3006,-252.4133 56.0533,-262.9344 62.8866,-261.4159"/>
</g>
<!-- 6 -->
<g id="node7" class="node">
<title>6</title>
<path fill="none" stroke="#569ad8" stroke-width="2" stroke-dasharray="5,2" d="M72.4924,-180C72.4924,-180 37.9252,-180 37.9252,-180 31.9252,-180 25.9252,-174 25.9252,-168 25.9252,-168 25.9252,-156 25.9252,-156 25.9252,-150 31.9252,-144 37.9252,-144 37.9252,-144 72.4924,-144 72.4924,-144 78.4924,-144 84.4924,-150 84.4924,-156 84.4924,-156 84.4924,-168 84.4924,-168 84.4924,-174 78.4924,-180 72.4924,-180"/>
<text text-anchor="middle" x="55.2088" y="-159" font-family="sans" font-size="10.00" fill="#000000">MrPresso</text>
</g>
<!-- 6&#45;&gt;1 -->
<g id="edge6" class="edge">
<title>6&#45;&gt;1</title>
<path fill="none" stroke="#c0c0c0" stroke-width="2" d="M74.6391,-143.8314C83.9407,-135.1337 95.2291,-124.5783 105.3373,-115.1265"/>
<polygon fill="#c0c0c0" stroke="#c0c0c0" stroke-width="2" points="107.8708,-117.5493 112.7846,-108.1628 103.0899,-112.4363 107.8708,-117.5493"/>
</g>
<!-- 7 -->
<g id="node8" class="node">
<title>7</title>
<path fill="none" stroke="#56d8d8" stroke-width="2" stroke-dasharray="5,2" d="M222.0885,-396C222.0885,-396 156.329,-396 156.329,-396 150.329,-396 144.329,-390 144.329,-384 144.329,-384 144.329,-372 144.329,-372 144.329,-366 150.329,-360 156.329,-360 156.329,-360 222.0885,-360 222.0885,-360 228.0885,-360 234.0885,-366 234.0885,-372 234.0885,-372 234.0885,-384 234.0885,-384 234.0885,-390 228.0885,-396 222.0885,-396"/>
<text text-anchor="middle" x="189.2088" y="-380" font-family="sans" font-size="10.00" fill="#000000">ExposureSnps</text>
<text text-anchor="middle" x="189.2088" y="-370" font-family="sans" font-size="10.00" fill="#000000">Pthreshold: 5e&#45;8</text>
</g>
<!-- 7&#45;&gt;1 -->
<g id="edge7" class="edge">
<title>7&#45;&gt;1</title>
<path fill="none" stroke="#c0c0c0" stroke-width="2" d="M184.0837,-359.5849C181.2771,-349.1826 177.8445,-335.915 175.2088,-324 158.8898,-250.2287 143.938,-162.4128 136.7312,-118.2862"/>
<polygon fill="#c0c0c0" stroke="#c0c0c0" stroke-width="2" points="140.1665,-117.6049 135.1101,-108.2946 133.2569,-118.7261 140.1665,-117.6049"/>
</g>
<!-- 7&#45;&gt;3 -->
<g id="edge13" class="edge">
<title>7&#45;&gt;3</title>
<path fill="none" stroke="#c0c0c0" stroke-width="2" d="M191.9434,-359.7926C194.9609,-341.4125 200.4408,-312.3416 208.2088,-288 228.2904,-225.0725 261.4845,-154.9412 280.2172,-117.3531"/>
<polygon fill="#c0c0c0" stroke="#c0c0c0" stroke-width="2" points="283.5119,-118.5913 284.873,-108.0842 277.2567,-115.4492 283.5119,-118.5913"/>
</g>
<!-- 7&#45;&gt;5 -->
<g id="edge17" class="edge">
<title>7&#45;&gt;5</title>
<path fill="none" stroke="#c0c0c0" stroke-width="2" d="M158.9277,-359.8314C143.5789,-350.6221 124.7589,-339.3301 108.3264,-329.4706"/>
<polygon fill="#c0c0c0" stroke="#c0c0c0" stroke-width="2" points="109.8558,-326.3066 99.4801,-324.1628 106.2543,-332.3091 109.8558,-326.3066"/>
</g>
<!-- 11 -->
<g id="node12" class="node">
<title>11</title>
<path fill="none" stroke="#97d856" stroke-width="2" stroke-dasharray="5,2" d="M309.6492,-324C309.6492,-324 228.7683,-324 228.7683,-324 222.7683,-324 216.7683,-318 216.7683,-312 216.7683,-312 216.7683,-300 216.7683,-300 216.7683,-294 222.7683,-288 228.7683,-288 228.7683,-288 309.6492,-288 309.6492,-288 315.6492,-288 321.6492,-294 321.6492,-300 321.6492,-300 321.6492,-312 321.6492,-312 321.6492,-318 315.6492,-324 309.6492,-324"/>
<text text-anchor="middle" x="269.2088" y="-308" font-family="sans" font-size="10.00" fill="#000000">OutcomeSnps</text>
<text text-anchor="middle" x="269.2088" y="-298" font-family="sans" font-size="10.00" fill="#000000">OutcomeCode: load</text>
</g>
<!-- 7&#45;&gt;11 -->
<g id="edge23" class="edge">
<title>7&#45;&gt;11</title>
<path fill="none" stroke="#c0c0c0" stroke-width="2" d="M209.3961,-359.8314C219.0602,-351.1337 230.7884,-340.5783 241.2904,-331.1265"/>
<polygon fill="#c0c0c0" stroke="#c0c0c0" stroke-width="2" points="243.9363,-333.454 249.0278,-324.1628 239.2535,-328.251 243.9363,-333.454"/>
</g>
<!-- 7&#45;&gt;15 -->
<g id="edge27" class="edge">
<title>7&#45;&gt;15</title>
<path fill="none" stroke="#c0c0c0" stroke-width="2" d="M144.2379,-370.9908C95.5998,-362.3836 22.7696,-346.1537 6.2088,-324 -8.7518,-303.9871 7.2653,-278.5433 24.5415,-259.8188"/>
<polygon fill="#c0c0c0" stroke="#c0c0c0" stroke-width="2" points="27.4572,-261.8423 31.9361,-252.2408 22.4471,-256.9536 27.4572,-261.8423"/>
</g>
<!-- 18 -->
<g id="node19" class="node">
<title>18</title>
<path fill="none" stroke="#d85656" stroke-width="2" stroke-dasharray="5,2" d="M347.5593,-252C347.5593,-252 306.8582,-252 306.8582,-252 300.8582,-252 294.8582,-246 294.8582,-240 294.8582,-240 294.8582,-228 294.8582,-228 294.8582,-222 300.8582,-216 306.8582,-216 306.8582,-216 347.5593,-216 347.5593,-216 353.5593,-216 359.5593,-222 359.5593,-228 359.5593,-228 359.5593,-240 359.5593,-240 359.5593,-246 353.5593,-252 347.5593,-252"/>
<text text-anchor="middle" x="327.2088" y="-231" font-family="sans" font-size="10.00" fill="#000000">Harmonize</text>
</g>
<!-- 7&#45;&gt;18 -->
<g id="edge32" class="edge">
<title>7&#45;&gt;18</title>
<path fill="none" stroke="#c0c0c0" stroke-width="2" d="M234.1602,-366.7325C271.014,-356.4783 318.8814,-340.4678 330.2088,-324 342.4688,-306.1763 340.5985,-281.3257 336.2916,-262.2522"/>
<polygon fill="#c0c0c0" stroke="#c0c0c0" stroke-width="2" points="339.6177,-261.1347 333.7224,-252.3315 332.8413,-262.8897 339.6177,-261.1347"/>
</g>
<!-- 8 -->
<g id="node9" class="node">
<title>8</title>
<path fill="none" stroke="#97d856" stroke-width="2" stroke-dasharray="5,2" d="M507.6492,-324C507.6492,-324 426.7683,-324 426.7683,-324 420.7683,-324 414.7683,-318 414.7683,-312 414.7683,-312 414.7683,-300 414.7683,-300 414.7683,-294 420.7683,-288 426.7683,-288 426.7683,-288 507.6492,-288 507.6492,-288 513.6492,-288 519.6492,-294 519.6492,-300 519.6492,-300 519.6492,-312 519.6492,-312 519.6492,-318 513.6492,-324 507.6492,-324"/>
<text text-anchor="middle" x="467.2088" y="-308" font-family="sans" font-size="10.00" fill="#000000">OutcomeSnps</text>
<text text-anchor="middle" x="467.2088" y="-298" font-family="sans" font-size="10.00" fill="#000000">OutcomeCode: load</text>
</g>
<!-- 8&#45;&gt;2 -->
<g id="edge8" class="edge">
<title>8&#45;&gt;2</title>
<path fill="none" stroke="#c0c0c0" stroke-width="2" d="M465.2778,-287.9984C462.0274,-258.0729 455.1367,-196.2135 448.2088,-144 447.1044,-135.6766 445.8063,-126.6469 444.5808,-118.3966"/>
<polygon fill="#c0c0c0" stroke="#c0c0c0" stroke-width="2" points="448.0369,-117.8425 443.0874,-108.4749 441.1149,-118.8845 448.0369,-117.8425"/>
</g>
<!-- 17 -->
<g id="node18" class="node">
<title>17</title>
<path fill="none" stroke="#d85656" stroke-width="2" stroke-dasharray="5,2" d="M429.5593,-252C429.5593,-252 388.8582,-252 388.8582,-252 382.8582,-252 376.8582,-246 376.8582,-240 376.8582,-240 376.8582,-228 376.8582,-228 376.8582,-222 382.8582,-216 388.8582,-216 388.8582,-216 429.5593,-216 429.5593,-216 435.5593,-216 441.5593,-222 441.5593,-228 441.5593,-228 441.5593,-240 441.5593,-240 441.5593,-246 435.5593,-252 429.5593,-252"/>
<text text-anchor="middle" x="409.2088" y="-231" font-family="sans" font-size="10.00" fill="#000000">Harmonize</text>
</g>
<!-- 8&#45;&gt;17 -->
<g id="edge31" class="edge">
<title>8&#45;&gt;17</title>
<path fill="none" stroke="#c0c0c0" stroke-width="2" d="M452.5729,-287.8314C445.8926,-279.5386 437.8519,-269.557 430.5184,-260.4533"/>
<polygon fill="#c0c0c0" stroke="#c0c0c0" stroke-width="2" points="433.0406,-258.0052 424.0417,-252.4133 427.5893,-262.3965 433.0406,-258.0052"/>
</g>
<!-- 9 -->
<g id="node10" class="node">
<title>9</title>
<path fill="none" stroke="#569ad8" stroke-width="2" stroke-dasharray="5,2" d="M427.4924,-180C427.4924,-180 392.9252,-180 392.9252,-180 386.9252,-180 380.9252,-174 380.9252,-168 380.9252,-168 380.9252,-156 380.9252,-156 380.9252,-150 386.9252,-144 392.9252,-144 392.9252,-144 427.4924,-144 427.4924,-144 433.4924,-144 439.4924,-150 439.4924,-156 439.4924,-156 439.4924,-168 439.4924,-168 439.4924,-174 433.4924,-180 427.4924,-180"/>
<text text-anchor="middle" x="410.2088" y="-159" font-family="sans" font-size="10.00" fill="#000000">MrPresso</text>
</g>
<!-- 9&#45;&gt;2 -->
<g id="edge9" class="edge">
<title>9&#45;&gt;2</title>
<path fill="none" stroke="#c0c0c0" stroke-width="2" d="M417.779,-143.8314C421.058,-135.9617 424.9708,-126.5712 428.6032,-117.8533"/>
<polygon fill="#c0c0c0" stroke="#c0c0c0" stroke-width="2" points="431.9211,-118.9902 432.5366,-108.4133 425.4596,-116.2979 431.9211,-118.9902"/>
</g>
<!-- 10 -->
<g id="node11" class="node">
<title>10</title>
<path fill="none" stroke="#56d8d8" stroke-width="2" stroke-dasharray="5,2" d="M580.0885,-396C580.0885,-396 514.329,-396 514.329,-396 508.329,-396 502.329,-390 502.329,-384 502.329,-384 502.329,-372 502.329,-372 502.329,-366 508.329,-360 514.329,-360 514.329,-360 580.0885,-360 580.0885,-360 586.0885,-360 592.0885,-366 592.0885,-372 592.0885,-372 592.0885,-384 592.0885,-384 592.0885,-390 586.0885,-396 580.0885,-396"/>
<text text-anchor="middle" x="547.2088" y="-380" font-family="sans" font-size="10.00" fill="#000000">ExposureSnps</text>
<text text-anchor="middle" x="547.2088" y="-370" font-family="sans" font-size="10.00" fill="#000000">Pthreshold: 5e&#45;6</text>
</g>
<!-- 10&#45;&gt;2 -->
<g id="edge10" class="edge">
<title>10&#45;&gt;2</title>
<path fill="none" stroke="#c0c0c0" stroke-width="2" d="M544.4878,-359.7882C541.4808,-341.4047 536.009,-312.3313 528.2088,-288 506.8828,-221.4778 493.8846,-207.7 465.2088,-144 461.3264,-135.3759 457.0238,-126.0143 453.0978,-117.5454"/>
<polygon fill="#c0c0c0" stroke="#c0c0c0" stroke-width="2" points="456.2585,-116.0416 448.8679,-108.4501 449.9113,-118.9934 456.2585,-116.0416"/>
</g>
<!-- 10&#45;&gt;4 -->
<g id="edge15" class="edge">
<title>10&#45;&gt;4</title>
<path fill="none" stroke="#c0c0c0" stroke-width="2" d="M552.3338,-359.5849C555.1404,-349.1826 558.573,-335.915 561.2088,-324 577.5277,-250.2287 592.4795,-162.4128 599.6863,-118.2862"/>
<polygon fill="#c0c0c0" stroke="#c0c0c0" stroke-width="2" points="603.1606,-118.7261 601.3074,-108.2946 596.251,-117.6049 603.1606,-118.7261"/>
</g>
<!-- 10&#45;&gt;8 -->
<g id="edge20" class="edge">
<title>10&#45;&gt;8</title>
<path fill="none" stroke="#c0c0c0" stroke-width="2" d="M527.0214,-359.8314C517.3574,-351.1337 505.6291,-340.5783 495.1271,-331.1265"/>
<polygon fill="#c0c0c0" stroke="#c0c0c0" stroke-width="2" points="497.164,-328.251 487.3897,-324.1628 492.4813,-333.454 497.164,-328.251"/>
</g>
<!-- 14 -->
<g id="node15" class="node">
<title>14</title>
<path fill="none" stroke="#97d856" stroke-width="2" stroke-dasharray="5,2" d="M708.9279,-324C708.9279,-324 625.4896,-324 625.4896,-324 619.4896,-324 613.4896,-318 613.4896,-312 613.4896,-312 613.4896,-300 613.4896,-300 613.4896,-294 619.4896,-288 625.4896,-288 625.4896,-288 708.9279,-288 708.9279,-288 714.9279,-288 720.9279,-294 720.9279,-300 720.9279,-300 720.9279,-312 720.9279,-312 720.9279,-318 714.9279,-324 708.9279,-324"/>
<text text-anchor="middle" x="667.2088" y="-308" font-family="sans" font-size="10.00" fill="#000000">OutcomeSnps</text>
<text text-anchor="middle" x="667.2088" y="-298" font-family="sans" font-size="10.00" fill="#000000">OutcomeCode: aaos</text>
</g>
<!-- 10&#45;&gt;14 -->
<g id="edge26" class="edge">
<title>10&#45;&gt;14</title>
<path fill="none" stroke="#c0c0c0" stroke-width="2" d="M577.4898,-359.8314C592.8386,-350.6221 611.6586,-339.3301 628.0911,-329.4706"/>
<polygon fill="#c0c0c0" stroke="#c0c0c0" stroke-width="2" points="630.1632,-332.3091 636.9374,-324.1628 626.5617,-326.3066 630.1632,-332.3091"/>
</g>
<!-- 10&#45;&gt;17 -->
<g id="edge30" class="edge">
<title>10&#45;&gt;17</title>
<path fill="none" stroke="#c0c0c0" stroke-width="2" d="M502.2573,-366.7325C465.4035,-356.4783 417.5361,-340.4678 406.2088,-324 393.9487,-306.1763 395.819,-281.3257 400.1259,-262.2522"/>
<polygon fill="#c0c0c0" stroke="#c0c0c0" stroke-width="2" points="403.5762,-262.8897 402.6951,-252.3315 396.7998,-261.1347 403.5762,-262.8897"/>
</g>
<!-- 19 -->
<g id="node20" class="node">
<title>19</title>
<path fill="none" stroke="#d85656" stroke-width="2" stroke-dasharray="5,2" d="M703.5593,-252C703.5593,-252 662.8582,-252 662.8582,-252 656.8582,-252 650.8582,-246 650.8582,-240 650.8582,-240 650.8582,-228 650.8582,-228 650.8582,-222 656.8582,-216 662.8582,-216 662.8582,-216 703.5593,-216 703.5593,-216 709.5593,-216 715.5593,-222 715.5593,-228 715.5593,-228 715.5593,-240 715.5593,-240 715.5593,-246 709.5593,-252 703.5593,-252"/>
<text text-anchor="middle" x="683.2088" y="-231" font-family="sans" font-size="10.00" fill="#000000">Harmonize</text>
</g>
<!-- 10&#45;&gt;19 -->
<g id="edge35" class="edge">
<title>10&#45;&gt;19</title>
<path fill="none" stroke="#c0c0c0" stroke-width="2" d="M592.1796,-370.9908C640.8177,-362.3836 713.6479,-346.1537 730.2088,-324 745.1693,-303.9871 729.1522,-278.5433 711.876,-259.8188"/>
<polygon fill="#c0c0c0" stroke="#c0c0c0" stroke-width="2" points="713.9704,-256.9536 704.4814,-252.2408 708.9603,-261.8423 713.9704,-256.9536"/>
</g>
<!-- 11&#45;&gt;3 -->
<g id="edge11" class="edge">
<title>11&#45;&gt;3</title>
<path fill="none" stroke="#c0c0c0" stroke-width="2" d="M271.2972,-287.9555C275.6538,-250.3144 285.7381,-163.1867 290.9536,-118.1246"/>
<polygon fill="#c0c0c0" stroke="#c0c0c0" stroke-width="2" points="294.4356,-118.4812 292.1086,-108.1451 287.482,-117.6763 294.4356,-118.4812"/>
</g>
<!-- 11&#45;&gt;18 -->
<g id="edge33" class="edge">
<title>11&#45;&gt;18</title>
<path fill="none" stroke="#c0c0c0" stroke-width="2" d="M283.8446,-287.8314C290.5249,-279.5386 298.5656,-269.557 305.8991,-260.4533"/>
<polygon fill="#c0c0c0" stroke="#c0c0c0" stroke-width="2" points="308.8282,-262.3965 312.3758,-252.4133 303.3769,-258.0052 308.8282,-262.3965"/>
</g>
<!-- 12 -->
<g id="node13" class="node">
<title>12</title>
<path fill="none" stroke="#569ad8" stroke-width="2" stroke-dasharray="5,2" d="M343.4924,-180C343.4924,-180 308.9252,-180 308.9252,-180 302.9252,-180 296.9252,-174 296.9252,-168 296.9252,-168 296.9252,-156 296.9252,-156 296.9252,-150 302.9252,-144 308.9252,-144 308.9252,-144 343.4924,-144 343.4924,-144 349.4924,-144 355.4924,-150 355.4924,-156 355.4924,-156 355.4924,-168 355.4924,-168 355.4924,-174 349.4924,-180 343.4924,-180"/>
<text text-anchor="middle" x="326.2088" y="-159" font-family="sans" font-size="10.00" fill="#000000">MrPresso</text>
</g>
<!-- 12&#45;&gt;3 -->
<g id="edge12" class="edge">
<title>12&#45;&gt;3</title>
<path fill="none" stroke="#c0c0c0" stroke-width="2" d="M318.1338,-143.8314C314.5986,-135.8771 310.3728,-126.369 306.4631,-117.5723"/>
<polygon fill="#c0c0c0" stroke="#c0c0c0" stroke-width="2" points="309.6522,-116.1299 302.3924,-108.4133 303.2555,-118.9729 309.6522,-116.1299"/>
</g>
<!-- 13 -->
<g id="node14" class="node">
<title>13</title>
<path fill="none" stroke="#569ad8" stroke-width="2" stroke-dasharray="5,2" d="M698.4924,-180C698.4924,-180 663.9252,-180 663.9252,-180 657.9252,-180 651.9252,-174 651.9252,-168 651.9252,-168 651.9252,-156 651.9252,-156 651.9252,-150 657.9252,-144 663.9252,-144 663.9252,-144 698.4924,-144 698.4924,-144 704.4924,-144 710.4924,-150 710.4924,-156 710.4924,-156 710.4924,-168 710.4924,-168 710.4924,-174 704.4924,-180 698.4924,-180"/>
<text text-anchor="middle" x="681.2088" y="-159" font-family="sans" font-size="10.00" fill="#000000">MrPresso</text>
</g>
<!-- 13&#45;&gt;4 -->
<g id="edge14" class="edge">
<title>13&#45;&gt;4</title>
<path fill="none" stroke="#c0c0c0" stroke-width="2" d="M661.7784,-143.8314C652.4768,-135.1337 641.1884,-124.5783 631.0802,-115.1265"/>
<polygon fill="#c0c0c0" stroke="#c0c0c0" stroke-width="2" points="633.3276,-112.4363 623.6329,-108.1628 628.5467,-117.5493 633.3276,-112.4363"/>
</g>
<!-- 14&#45;&gt;4 -->
<g id="edge16" class="edge">
<title>14&#45;&gt;4</title>
<path fill="none" stroke="#c0c0c0" stroke-width="2" d="M657.698,-287.8876C652.5738,-277.5799 646.4513,-264.3062 642.2088,-252 626.4746,-206.3609 615.0898,-151.2757 609.0807,-118.524"/>
<polygon fill="#c0c0c0" stroke="#c0c0c0" stroke-width="2" points="612.4608,-117.544 607.2503,-108.319 605.5708,-118.7799 612.4608,-117.544"/>
</g>
<!-- 14&#45;&gt;19 -->
<g id="edge34" class="edge">
<title>14&#45;&gt;19</title>
<path fill="none" stroke="#c0c0c0" stroke-width="2" d="M671.2462,-287.8314C672.9574,-280.131 674.9922,-270.9743 676.8939,-262.4166"/>
<polygon fill="#c0c0c0" stroke="#c0c0c0" stroke-width="2" points="680.3642,-262.9344 679.1169,-252.4133 673.5309,-261.4159 680.3642,-262.9344"/>
</g>
<!-- 15&#45;&gt;6 -->
<g id="edge18" class="edge">
<title>15&#45;&gt;6</title>
<path fill="none" stroke="#c0c0c0" stroke-width="2" d="M53.7134,-215.8314C53.9273,-208.131 54.1817,-198.9743 54.4194,-190.4166"/>
<polygon fill="#c0c0c0" stroke="#c0c0c0" stroke-width="2" points="57.9182,-190.5066 54.6973,-180.4133 50.9209,-190.3122 57.9182,-190.5066"/>
</g>
<!-- 16 -->
<g id="node17" class="node">
<title>16</title>
<path fill="none" stroke="#59d856" stroke-width="2" stroke-dasharray="5,2" d="M383.2088,-468C383.2088,-468 353.2088,-468 353.2088,-468 347.2088,-468 341.2088,-462 341.2088,-456 341.2088,-456 341.2088,-444 341.2088,-444 341.2088,-438 347.2088,-432 353.2088,-432 353.2088,-432 383.2088,-432 383.2088,-432 389.2088,-432 395.2088,-438 395.2088,-444 395.2088,-444 395.2088,-456 395.2088,-456 395.2088,-462 389.2088,-468 383.2088,-468"/>
<text text-anchor="middle" x="368.2088" y="-447" font-family="sans" font-size="10.00" fill="#000000">gzip</text>
</g>
<!-- 16&#45;&gt;7 -->
<g id="edge19" class="edge">
<title>16&#45;&gt;7</title>
<path fill="none" stroke="#c0c0c0" stroke-width="2" d="M341.0225,-439.0647C315.2081,-428.6813 275.6634,-412.7751 243.4053,-399.7997"/>
<polygon fill="#c0c0c0" stroke="#c0c0c0" stroke-width="2" points="244.6694,-396.5357 234.0857,-396.051 242.0571,-403.03 244.6694,-396.5357"/>
</g>
<!-- 16&#45;&gt;10 -->
<g id="edge22" class="edge">
<title>16&#45;&gt;10</title>
<path fill="none" stroke="#c0c0c0" stroke-width="2" d="M395.395,-439.0647C421.2094,-428.6813 460.7541,-412.7751 493.0122,-399.7997"/>
<polygon fill="#c0c0c0" stroke="#c0c0c0" stroke-width="2" points="494.3604,-403.03 502.3319,-396.051 491.7481,-396.5357 494.3604,-403.03"/>
</g>
<!-- 17&#45;&gt;9 -->
<g id="edge21" class="edge">
<title>17&#45;&gt;9</title>
<path fill="none" stroke="#c0c0c0" stroke-width="2" d="M409.4611,-215.8314C409.568,-208.131 409.6952,-198.9743 409.8141,-190.4166"/>
<polygon fill="#c0c0c0" stroke="#c0c0c0" stroke-width="2" points="413.3137,-190.4609 409.953,-180.4133 406.3144,-190.3637 413.3137,-190.4609"/>
</g>
<!-- 18&#45;&gt;12 -->
<g id="edge24" class="edge">
<title>18&#45;&gt;12</title>
<path fill="none" stroke="#c0c0c0" stroke-width="2" d="M326.9564,-215.8314C326.8495,-208.131 326.7223,-198.9743 326.6034,-190.4166"/>
<polygon fill="#c0c0c0" stroke="#c0c0c0" stroke-width="2" points="330.1031,-190.3637 326.4645,-180.4133 323.1038,-190.4609 330.1031,-190.3637"/>
</g>
<!-- 19&#45;&gt;13 -->
<g id="edge25" class="edge">
<title>19&#45;&gt;13</title>
<path fill="none" stroke="#c0c0c0" stroke-width="2" d="M682.7041,-215.8314C682.4902,-208.131 682.2358,-198.9743 681.9981,-190.4166"/>
<polygon fill="#c0c0c0" stroke="#c0c0c0" stroke-width="2" points="685.4967,-190.3122 681.7202,-180.4133 678.4993,-190.5066 685.4967,-190.3122"/>
</g>
<!-- 20 -->
<g id="node21" class="node">
<title>20</title>
<path fill="none" stroke="#d89556" stroke-width="2" stroke-dasharray="5,2" d="M408.0409,-540C408.0409,-540 328.3766,-540 328.3766,-540 322.3766,-540 316.3766,-534 316.3766,-528 316.3766,-528 316.3766,-516 316.3766,-516 316.3766,-510 322.3766,-504 328.3766,-504 328.3766,-504 408.0409,-504 408.0409,-504 414.0409,-504 420.0409,-510 420.0409,-516 420.0409,-516 420.0409,-528 420.0409,-528 420.0409,-534 414.0409,-540 408.0409,-540"/>
<text text-anchor="middle" x="368.2088" y="-524" font-family="sans" font-size="10.00" fill="#000000">clump</text>
<text text-anchor="middle" x="368.2088" y="-514" font-family="sans" font-size="10.00" fill="#000000">ExposureCode: cpd</text>
</g>
<!-- 20&#45;&gt;16 -->
<g id="edge29" class="edge">
<title>20&#45;&gt;16</title>
<path fill="none" stroke="#c0c0c0" stroke-width="2" d="M368.2088,-503.8314C368.2088,-496.131 368.2088,-486.9743 368.2088,-478.4166"/>
<polygon fill="#c0c0c0" stroke="#c0c0c0" stroke-width="2" points="371.7089,-478.4132 368.2088,-468.4133 364.7089,-478.4133 371.7089,-478.4132"/>
</g>
</g>
</svg>
