<?xml version="1.0" encoding="UTF-8" standalone="no"?>
<!DOCTYPE svg PUBLIC "-//W3C//DTD SVG 1.1//EN"
 "http://www.w3.org/Graphics/SVG/1.1/DTD/svg11.dtd">
<!-- Generated by graphviz version 2.38.0 (20140413.2041)
 -->
<!-- Title: snakemake_dag Pages: 1 -->
<svg width="692pt" height="764pt"
 viewBox="0.00 0.00 692.16 764.00" xmlns="http://www.w3.org/2000/svg" xmlns:xlink="http://www.w3.org/1999/xlink">
<g id="graph0" class="graph" transform="scale(1 1) rotate(0) translate(4 760)">
<title>snakemake_dag</title>
<polygon fill="white" stroke="none" points="-4,4 -4,-760 688.157,-760 688.157,4 -4,4"/>
<!-- 0 -->
<g id="node1" class="node"><title>0</title>
<path fill="none" stroke="#d85656" stroke-width="2" d="M203.47,-36C203.47,-36 173.47,-36 173.47,-36 167.47,-36 161.47,-30 161.47,-24 161.47,-24 161.47,-12 161.47,-12 161.47,-6 167.47,-0 173.47,-0 173.47,-0 203.47,-0 203.47,-0 209.47,-0 215.47,-6 215.47,-12 215.47,-12 215.47,-24 215.47,-24 215.47,-30 209.47,-36 203.47,-36"/>
<text text-anchor="middle" x="188.47" y="-15" font-family="sans" font-size="10.00">all</text>
</g>
<!-- 1 -->
<g id="node2" class="node"><title>1</title>
<path fill="none" stroke="#5682d8" stroke-width="2" d="M211.94,-108C211.94,-108 165.001,-108 165.001,-108 159.001,-108 153.001,-102 153.001,-96 153.001,-96 153.001,-84 153.001,-84 153.001,-78 159.001,-72 165.001,-72 165.001,-72 211.94,-72 211.94,-72 217.94,-72 223.94,-78 223.94,-84 223.94,-84 223.94,-96 223.94,-96 223.94,-102 217.94,-108 211.94,-108"/>
<text text-anchor="middle" x="188.47" y="-87" font-family="sans" font-size="10.00">html_Report</text>
</g>
<!-- 1&#45;&gt;0 -->
<g id="edge1" class="edge"><title>1&#45;&gt;0</title>
<path fill="none" stroke="grey" stroke-width="2" d="M188.47,-71.6966C188.47,-63.9827 188.47,-54.7125 188.47,-46.1124"/>
<polygon fill="grey" stroke="grey" stroke-width="2" points="191.97,-46.1043 188.47,-36.1043 184.97,-46.1044 191.97,-46.1043"/>
</g>
<!-- 2 -->
<g id="node3" class="node"><title>2</title>
<path fill="none" stroke="#5682d8" stroke-width="2" d="M492.94,-108C492.94,-108 446.001,-108 446.001,-108 440.001,-108 434.001,-102 434.001,-96 434.001,-96 434.001,-84 434.001,-84 434.001,-78 440.001,-72 446.001,-72 446.001,-72 492.94,-72 492.94,-72 498.94,-72 504.94,-78 504.94,-84 504.94,-84 504.94,-96 504.94,-96 504.94,-102 498.94,-108 492.94,-108"/>
<text text-anchor="middle" x="469.47" y="-87" font-family="sans" font-size="10.00">html_Report</text>
</g>
<!-- 2&#45;&gt;0 -->
<g id="edge2" class="edge"><title>2&#45;&gt;0</title>
<path fill="none" stroke="grey" stroke-width="2" d="M434.166,-80.2053C380.851,-66.9242 280.251,-41.8636 225.779,-28.294"/>
<polygon fill="grey" stroke="grey" stroke-width="2" points="226.396,-24.8408 215.847,-25.8197 224.704,-31.6333 226.396,-24.8408"/>
</g>
<!-- 3 -->
<g id="node4" class="node"><title>3</title>
<path fill="none" stroke="#56d8d8" stroke-width="2" d="M72.9107,-540C72.9107,-540 12.0298,-540 12.0298,-540 6.02976,-540 0.0297643,-534 0.0297643,-528 0.0297643,-528 0.0297643,-516 0.0297643,-516 0.0297643,-510 6.02976,-504 12.0298,-504 12.0298,-504 72.9107,-504 72.9107,-504 78.9107,-504 84.9107,-510 84.9107,-516 84.9107,-516 84.9107,-528 84.9107,-528 84.9107,-534 78.9107,-540 72.9107,-540"/>
<text text-anchor="middle" x="42.4702" y="-519" font-family="sans" font-size="10.00">manhattan_plot</text>
</g>
<!-- 3&#45;&gt;0 -->
<g id="edge3" class="edge"><title>3&#45;&gt;0</title>
<path fill="none" stroke="grey" stroke-width="2" d="M45.7081,-503.582C50.3833,-476.875 58.4702,-424.152 58.4702,-379 58.4702,-379 58.4702,-379 58.4702,-161 58.4702,-105.148 113.861,-61.7072 152.329,-38.2722"/>
<polygon fill="grey" stroke="grey" stroke-width="2" points="154.385,-41.123 161.218,-33.0256 150.827,-35.0948 154.385,-41.123"/>
</g>
<!-- 4 -->
<g id="node5" class="node"><title>4</title>
<path fill="none" stroke="#56d8a9" stroke-width="2" d="M303.754,-252C303.754,-252 269.187,-252 269.187,-252 263.187,-252 257.187,-246 257.187,-240 257.187,-240 257.187,-228 257.187,-228 257.187,-222 263.187,-216 269.187,-216 269.187,-216 303.754,-216 303.754,-216 309.754,-216 315.754,-222 315.754,-228 315.754,-228 315.754,-240 315.754,-240 315.754,-246 309.754,-252 303.754,-252"/>
<text text-anchor="middle" x="286.47" y="-231" font-family="sans" font-size="10.00">MrPresso</text>
</g>
<!-- 4&#45;&gt;1 -->
<g id="edge4" class="edge"><title>4&#45;&gt;1</title>
<path fill="none" stroke="grey" stroke-width="2" d="M272.405,-215.628C264.3,-205.421 254.05,-192.171 245.47,-180 230.796,-159.184 215.277,-134.776 204.144,-116.791"/>
<polygon fill="grey" stroke="grey" stroke-width="2" points="206.971,-114.707 198.75,-108.025 201.01,-118.376 206.971,-114.707"/>
</g>
<!-- 7 -->
<g id="node8" class="node"><title>7</title>
<path fill="none" stroke="#59d856" stroke-width="2" d="M372.345,-180C372.345,-180 266.596,-180 266.596,-180 260.596,-180 254.596,-174 254.596,-168 254.596,-168 254.596,-156 254.596,-156 254.596,-150 260.596,-144 266.596,-144 266.596,-144 372.345,-144 372.345,-144 378.345,-144 384.345,-150 384.345,-156 384.345,-156 384.345,-168 384.345,-168 384.345,-174 378.345,-180 372.345,-180"/>
<text text-anchor="middle" x="319.47" y="-159" font-family="sans" font-size="10.00">MRPRESSO_wo_outliers</text>
</g>
<!-- 4&#45;&gt;7 -->
<g id="edge18" class="edge"><title>4&#45;&gt;7</title>
<path fill="none" stroke="grey" stroke-width="2" d="M294.628,-215.697C298.384,-207.728 302.923,-198.1 307.089,-189.264"/>
<polygon fill="grey" stroke="grey" stroke-width="2" points="310.308,-190.642 311.407,-180.104 303.977,-187.657 310.308,-190.642"/>
</g>
<!-- 5 -->
<g id="node6" class="node"><title>5</title>
<path fill="none" stroke="#80d856" stroke-width="2" d="M230.35,-612C230.35,-612 164.591,-612 164.591,-612 158.591,-612 152.591,-606 152.591,-600 152.591,-600 152.591,-588 152.591,-588 152.591,-582 158.591,-576 164.591,-576 164.591,-576 230.35,-576 230.35,-576 236.35,-576 242.35,-582 242.35,-588 242.35,-588 242.35,-600 242.35,-600 242.35,-606 236.35,-612 230.35,-612"/>
<text text-anchor="middle" x="197.47" y="-596" font-family="sans" font-size="10.00">ExposureSnps</text>
<text text-anchor="middle" x="197.47" y="-586" font-family="sans" font-size="10.00">Pthreshold: 5e&#45;6</text>
</g>
<!-- 5&#45;&gt;1 -->
<g id="edge5" class="edge"><title>5&#45;&gt;1</title>
<path fill="none" stroke="grey" stroke-width="2" d="M167.867,-575.805C154.803,-566.755 140.413,-554.513 131.47,-540 110.251,-505.566 112.47,-491.447 112.47,-451 112.47,-451 112.47,-451 112.47,-233 112.47,-187.641 142.987,-142.749 165.345,-115.946"/>
<polygon fill="grey" stroke="grey" stroke-width="2" points="168.115,-118.093 171.979,-108.228 162.807,-113.53 168.115,-118.093"/>
</g>
<!-- 6 -->
<g id="node7" class="node"><title>6</title>
<path fill="none" stroke="#56d882" stroke-width="2" d="M242.293,-540C242.293,-540 152.648,-540 152.648,-540 146.648,-540 140.648,-534 140.648,-528 140.648,-528 140.648,-516 140.648,-516 140.648,-510 146.648,-504 152.648,-504 152.648,-504 242.293,-504 242.293,-504 248.293,-504 254.293,-510 254.293,-516 254.293,-516 254.293,-528 254.293,-528 254.293,-534 248.293,-540 242.293,-540"/>
<text text-anchor="middle" x="197.47" y="-524" font-family="sans" font-size="10.00">OutcomeSnps</text>
<text text-anchor="middle" x="197.47" y="-514" font-family="sans" font-size="10.00">OutcomeCode: alccliu</text>
</g>
<!-- 5&#45;&gt;6 -->
<g id="edge17" class="edge"><title>5&#45;&gt;6</title>
<path fill="none" stroke="grey" stroke-width="2" d="M197.47,-575.697C197.47,-567.983 197.47,-558.712 197.47,-550.112"/>
<polygon fill="grey" stroke="grey" stroke-width="2" points="200.97,-550.104 197.47,-540.104 193.97,-550.104 200.97,-550.104"/>
</g>
<!-- 15 -->
<g id="node16" class="node"><title>15</title>
<path fill="none" stroke="#d6d856" stroke-width="2" d="M306.821,-324C306.821,-324 266.12,-324 266.12,-324 260.12,-324 254.12,-318 254.12,-312 254.12,-312 254.12,-300 254.12,-300 254.12,-294 260.12,-288 266.12,-288 266.12,-288 306.821,-288 306.821,-288 312.821,-288 318.821,-294 318.821,-300 318.821,-300 318.821,-312 318.821,-312 318.821,-318 312.821,-324 306.821,-324"/>
<text text-anchor="middle" x="286.47" y="-303" font-family="sans" font-size="10.00">Harmonize</text>
</g>
<!-- 5&#45;&gt;15 -->
<g id="edge28" class="edge"><title>5&#45;&gt;15</title>
<path fill="none" stroke="grey" stroke-width="2" d="M222.699,-575.88C251.273,-554.603 295.66,-515.267 309.47,-468 322.903,-422.024 308.434,-366.283 297.142,-333.908"/>
<polygon fill="grey" stroke="grey" stroke-width="2" points="300.339,-332.457 293.628,-324.259 293.762,-334.853 300.339,-332.457"/>
</g>
<!-- 6&#45;&gt;1 -->
<g id="edge6" class="edge"><title>6&#45;&gt;1</title>
<path fill="none" stroke="grey" stroke-width="2" d="M187.732,-503.68C173.965,-477.525 150.47,-426.002 150.47,-379 150.47,-379 150.47,-379 150.47,-233 150.47,-191.633 165.705,-145.722 176.882,-117.605"/>
<polygon fill="grey" stroke="grey" stroke-width="2" points="180.227,-118.673 180.78,-108.093 173.749,-116.019 180.227,-118.673"/>
</g>
<!-- 8 -->
<g id="node9" class="node"><title>8</title>
<path fill="none" stroke="#afd856" stroke-width="2" d="M275.444,-396C275.444,-396 203.496,-396 203.496,-396 197.496,-396 191.496,-390 191.496,-384 191.496,-384 191.496,-372 191.496,-372 191.496,-366 197.496,-360 203.496,-360 203.496,-360 275.444,-360 275.444,-360 281.444,-360 287.444,-366 287.444,-372 287.444,-372 287.444,-384 287.444,-384 287.444,-390 281.444,-396 275.444,-396"/>
<text text-anchor="middle" x="239.47" y="-375" font-family="sans" font-size="10.00">ExtractProxySnps</text>
</g>
<!-- 6&#45;&gt;8 -->
<g id="edge20" class="edge"><title>6&#45;&gt;8</title>
<path fill="none" stroke="grey" stroke-width="2" d="M197.242,-503.798C197.492,-485.517 199.317,-455.997 207.47,-432 210.67,-422.583 215.737,-413.049 220.904,-404.714"/>
<polygon fill="grey" stroke="grey" stroke-width="2" points="223.926,-406.487 226.466,-396.201 218.066,-402.658 223.926,-406.487"/>
</g>
<!-- 16 -->
<g id="node17" class="node"><title>16</title>
<path fill="none" stroke="#d8ac56" stroke-width="2" d="M288.278,-468C288.278,-468 228.662,-468 228.662,-468 222.662,-468 216.662,-462 216.662,-456 216.662,-456 216.662,-444 216.662,-444 216.662,-438 222.662,-432 228.662,-432 228.662,-432 288.278,-432 288.278,-432 294.278,-432 300.278,-438 300.278,-444 300.278,-444 300.278,-456 300.278,-456 300.278,-462 294.278,-468 288.278,-468"/>
<text text-anchor="middle" x="258.47" y="-447" font-family="sans" font-size="10.00">FindProxySnps</text>
</g>
<!-- 6&#45;&gt;16 -->
<g id="edge30" class="edge"><title>6&#45;&gt;16</title>
<path fill="none" stroke="grey" stroke-width="2" d="M212.549,-503.697C219.862,-495.305 228.78,-485.07 236.805,-475.861"/>
<polygon fill="grey" stroke="grey" stroke-width="2" points="239.634,-477.943 243.565,-468.104 234.357,-473.344 239.634,-477.943"/>
</g>
<!-- 7&#45;&gt;1 -->
<g id="edge7" class="edge"><title>7&#45;&gt;1</title>
<path fill="none" stroke="grey" stroke-width="2" d="M287.424,-143.876C269.979,-134.554 248.205,-122.919 229.527,-112.939"/>
<polygon fill="grey" stroke="grey" stroke-width="2" points="231.109,-109.816 220.64,-108.19 227.81,-115.99 231.109,-109.816"/>
</g>
<!-- 8&#45;&gt;1 -->
<g id="edge8" class="edge"><title>8&#45;&gt;1</title>
<path fill="none" stroke="grey" stroke-width="2" d="M236.433,-359.966C227.914,-312.192 203.739,-176.623 193.332,-118.266"/>
<polygon fill="grey" stroke="grey" stroke-width="2" points="196.758,-117.537 191.556,-108.306 189.866,-118.766 196.758,-117.537"/>
</g>
<!-- 8&#45;&gt;15 -->
<g id="edge29" class="edge"><title>8&#45;&gt;15</title>
<path fill="none" stroke="grey" stroke-width="2" d="M251.088,-359.697C256.609,-351.474 263.317,-341.483 269.402,-332.421"/>
<polygon fill="grey" stroke="grey" stroke-width="2" points="272.317,-334.358 274.986,-324.104 266.506,-330.456 272.317,-334.358"/>
</g>
<!-- 9 -->
<g id="node10" class="node"><title>9</title>
<path fill="none" stroke="#afd856" stroke-width="2" d="M574.444,-396C574.444,-396 502.496,-396 502.496,-396 496.496,-396 490.496,-390 490.496,-384 490.496,-384 490.496,-372 490.496,-372 490.496,-366 496.496,-360 502.496,-360 502.496,-360 574.444,-360 574.444,-360 580.444,-360 586.444,-366 586.444,-372 586.444,-372 586.444,-384 586.444,-384 586.444,-390 580.444,-396 574.444,-396"/>
<text text-anchor="middle" x="538.47" y="-375" font-family="sans" font-size="10.00">ExtractProxySnps</text>
</g>
<!-- 9&#45;&gt;2 -->
<g id="edge9" class="edge"><title>9&#45;&gt;2</title>
<path fill="none" stroke="grey" stroke-width="2" d="M526.995,-359.533C520.913,-349.514 513.819,-336.48 509.47,-324 484.504,-252.363 474.738,-162.708 471.237,-118.398"/>
<polygon fill="grey" stroke="grey" stroke-width="2" points="474.707,-117.862 470.477,-108.148 467.726,-118.38 474.707,-117.862"/>
</g>
<!-- 18 -->
<g id="node19" class="node"><title>18</title>
<path fill="none" stroke="#d6d856" stroke-width="2" d="M570.821,-324C570.821,-324 530.12,-324 530.12,-324 524.12,-324 518.12,-318 518.12,-312 518.12,-312 518.12,-300 518.12,-300 518.12,-294 524.12,-288 530.12,-288 530.12,-288 570.821,-288 570.821,-288 576.821,-288 582.821,-294 582.821,-300 582.821,-300 582.821,-312 582.821,-312 582.821,-318 576.821,-324 570.821,-324"/>
<text text-anchor="middle" x="550.47" y="-303" font-family="sans" font-size="10.00">Harmonize</text>
</g>
<!-- 9&#45;&gt;18 -->
<g id="edge33" class="edge"><title>9&#45;&gt;18</title>
<path fill="none" stroke="grey" stroke-width="2" d="M541.437,-359.697C542.759,-351.983 544.348,-342.712 545.822,-334.112"/>
<polygon fill="grey" stroke="grey" stroke-width="2" points="549.298,-334.552 547.538,-324.104 542.399,-333.369 549.298,-334.552"/>
</g>
<!-- 10 -->
<g id="node11" class="node"><title>10</title>
<path fill="none" stroke="#80d856" stroke-width="2" d="M487.35,-612C487.35,-612 421.591,-612 421.591,-612 415.591,-612 409.591,-606 409.591,-600 409.591,-600 409.591,-588 409.591,-588 409.591,-582 415.591,-576 421.591,-576 421.591,-576 487.35,-576 487.35,-576 493.35,-576 499.35,-582 499.35,-588 499.35,-588 499.35,-600 499.35,-600 499.35,-606 493.35,-612 487.35,-612"/>
<text text-anchor="middle" x="454.47" y="-596" font-family="sans" font-size="10.00">ExposureSnps</text>
<text text-anchor="middle" x="454.47" y="-586" font-family="sans" font-size="10.00">Pthreshold: 5e&#45;8</text>
</g>
<!-- 10&#45;&gt;2 -->
<g id="edge10" class="edge"><title>10&#45;&gt;2</title>
<path fill="none" stroke="grey" stroke-width="2" d="M445.971,-575.993C433.698,-549.822 412.47,-497.79 412.47,-451 412.47,-451 412.47,-451 412.47,-233 412.47,-189.801 435.47,-144.186 452.25,-116.655"/>
<polygon fill="grey" stroke="grey" stroke-width="2" points="455.305,-118.372 457.66,-108.042 449.377,-114.648 455.305,-118.372"/>
</g>
<!-- 12 -->
<g id="node13" class="node"><title>12</title>
<path fill="none" stroke="#56d882" stroke-width="2" d="M542.293,-540C542.293,-540 452.648,-540 452.648,-540 446.648,-540 440.648,-534 440.648,-528 440.648,-528 440.648,-516 440.648,-516 440.648,-510 446.648,-504 452.648,-504 452.648,-504 542.293,-504 542.293,-504 548.293,-504 554.293,-510 554.293,-516 554.293,-516 554.293,-528 554.293,-528 554.293,-534 548.293,-540 542.293,-540"/>
<text text-anchor="middle" x="497.47" y="-524" font-family="sans" font-size="10.00">OutcomeSnps</text>
<text text-anchor="middle" x="497.47" y="-514" font-family="sans" font-size="10.00">OutcomeCode: alccliu</text>
</g>
<!-- 10&#45;&gt;12 -->
<g id="edge25" class="edge"><title>10&#45;&gt;12</title>
<path fill="none" stroke="grey" stroke-width="2" d="M465.099,-575.697C470.098,-567.559 476.161,-557.689 481.682,-548.701"/>
<polygon fill="grey" stroke="grey" stroke-width="2" points="484.711,-550.457 486.963,-540.104 478.747,-546.793 484.711,-550.457"/>
</g>
<!-- 10&#45;&gt;18 -->
<g id="edge32" class="edge"><title>10&#45;&gt;18</title>
<path fill="none" stroke="grey" stroke-width="2" d="M499.177,-577.794C520.318,-569.061 544.925,-556.51 563.47,-540 591.832,-514.75 598.821,-504.449 609.47,-468 623.044,-421.541 616.436,-403.625 595.47,-360 590.636,-349.942 583.425,-340.236 576.183,-331.94"/>
<polygon fill="grey" stroke="grey" stroke-width="2" points="578.65,-329.451 569.308,-324.452 573.493,-334.185 578.65,-329.451"/>
</g>
<!-- 11 -->
<g id="node12" class="node"><title>11</title>
<path fill="none" stroke="#59d856" stroke-width="2" d="M672.345,-180C672.345,-180 566.596,-180 566.596,-180 560.596,-180 554.596,-174 554.596,-168 554.596,-168 554.596,-156 554.596,-156 554.596,-150 560.596,-144 566.596,-144 566.596,-144 672.345,-144 672.345,-144 678.345,-144 684.345,-150 684.345,-156 684.345,-156 684.345,-168 684.345,-168 684.345,-174 678.345,-180 672.345,-180"/>
<text text-anchor="middle" x="619.47" y="-159" font-family="sans" font-size="10.00">MRPRESSO_wo_outliers</text>
</g>
<!-- 11&#45;&gt;2 -->
<g id="edge11" class="edge"><title>11&#45;&gt;2</title>
<path fill="none" stroke="grey" stroke-width="2" d="M582.776,-143.876C561.982,-134.172 535.817,-121.962 513.872,-111.721"/>
<polygon fill="grey" stroke="grey" stroke-width="2" points="515.295,-108.522 504.753,-107.465 512.334,-114.866 515.295,-108.522"/>
</g>
<!-- 12&#45;&gt;2 -->
<g id="edge12" class="edge"><title>12&#45;&gt;2</title>
<path fill="none" stroke="grey" stroke-width="2" d="M487.732,-503.68C473.965,-477.525 450.47,-426.002 450.47,-379 450.47,-379 450.47,-379 450.47,-233 450.47,-192.86 458.021,-146.897 463.602,-118.405"/>
<polygon fill="grey" stroke="grey" stroke-width="2" points="467.076,-118.883 465.625,-108.388 460.215,-117.498 467.076,-118.883"/>
</g>
<!-- 12&#45;&gt;9 -->
<g id="edge21" class="edge"><title>12&#45;&gt;9</title>
<path fill="none" stroke="grey" stroke-width="2" d="M497.309,-503.82C497.614,-485.558 499.484,-456.053 507.47,-432 510.578,-422.639 515.49,-413.121 520.494,-404.782"/>
<polygon fill="grey" stroke="grey" stroke-width="2" points="523.497,-406.583 525.881,-396.26 517.58,-402.843 523.497,-406.583"/>
</g>
<!-- 17 -->
<g id="node18" class="node"><title>17</title>
<path fill="none" stroke="#d8ac56" stroke-width="2" d="M588.278,-468C588.278,-468 528.662,-468 528.662,-468 522.662,-468 516.662,-462 516.662,-456 516.662,-456 516.662,-444 516.662,-444 516.662,-438 522.662,-432 528.662,-432 528.662,-432 588.278,-432 588.278,-432 594.278,-432 600.278,-438 600.278,-444 600.278,-444 600.278,-456 600.278,-456 600.278,-462 594.278,-468 588.278,-468"/>
<text text-anchor="middle" x="558.47" y="-447" font-family="sans" font-size="10.00">FindProxySnps</text>
</g>
<!-- 12&#45;&gt;17 -->
<g id="edge31" class="edge"><title>12&#45;&gt;17</title>
<path fill="none" stroke="grey" stroke-width="2" d="M512.549,-503.697C519.862,-495.305 528.78,-485.07 536.805,-475.861"/>
<polygon fill="grey" stroke="grey" stroke-width="2" points="539.634,-477.943 543.565,-468.104 534.357,-473.344 539.634,-477.943"/>
</g>
<!-- 13 -->
<g id="node14" class="node"><title>13</title>
<path fill="none" stroke="#56d8a9" stroke-width="2" d="M567.754,-252C567.754,-252 533.187,-252 533.187,-252 527.187,-252 521.187,-246 521.187,-240 521.187,-240 521.187,-228 521.187,-228 521.187,-222 527.187,-216 533.187,-216 533.187,-216 567.754,-216 567.754,-216 573.754,-216 579.754,-222 579.754,-228 579.754,-228 579.754,-240 579.754,-240 579.754,-246 573.754,-252 567.754,-252"/>
<text text-anchor="middle" x="550.47" y="-231" font-family="sans" font-size="10.00">MrPresso</text>
</g>
<!-- 13&#45;&gt;2 -->
<g id="edge13" class="edge"><title>13&#45;&gt;2</title>
<path fill="none" stroke="grey" stroke-width="2" d="M541.581,-215.763C532.174,-197.705 516.743,-168.599 502.47,-144 497.222,-134.954 491.242,-125.199 485.827,-116.553"/>
<polygon fill="grey" stroke="grey" stroke-width="2" points="488.741,-114.611 480.444,-108.021 482.821,-118.346 488.741,-114.611"/>
</g>
<!-- 13&#45;&gt;11 -->
<g id="edge24" class="edge"><title>13&#45;&gt;11</title>
<path fill="none" stroke="grey" stroke-width="2" d="M567.526,-215.697C575.966,-207.135 586.295,-196.656 595.513,-187.304"/>
<polygon fill="grey" stroke="grey" stroke-width="2" points="598.083,-189.683 602.61,-180.104 593.098,-184.769 598.083,-189.683"/>
</g>
<!-- 14 -->
<g id="node15" class="node"><title>14</title>
<path fill="none" stroke="#56a9d8" stroke-width="2" d="M212.47,-684C212.47,-684 182.47,-684 182.47,-684 176.47,-684 170.47,-678 170.47,-672 170.47,-672 170.47,-660 170.47,-660 170.47,-654 176.47,-648 182.47,-648 182.47,-648 212.47,-648 212.47,-648 218.47,-648 224.47,-654 224.47,-660 224.47,-660 224.47,-672 224.47,-672 224.47,-678 218.47,-684 212.47,-684"/>
<text text-anchor="middle" x="197.47" y="-663" font-family="sans" font-size="10.00">gzip</text>
</g>
<!-- 14&#45;&gt;3 -->
<g id="edge14" class="edge"><title>14&#45;&gt;3</title>
<path fill="none" stroke="grey" stroke-width="2" d="M178.774,-647.871C151.309,-622.711 99.9441,-575.654 68.7127,-547.042"/>
<polygon fill="grey" stroke="grey" stroke-width="2" points="70.971,-544.364 61.2331,-540.189 66.2424,-549.525 70.971,-544.364"/>
</g>
<!-- 14&#45;&gt;5 -->
<g id="edge16" class="edge"><title>14&#45;&gt;5</title>
<path fill="none" stroke="grey" stroke-width="2" d="M197.47,-647.697C197.47,-639.983 197.47,-630.712 197.47,-622.112"/>
<polygon fill="grey" stroke="grey" stroke-width="2" points="200.97,-622.104 197.47,-612.104 193.97,-622.104 200.97,-622.104"/>
</g>
<!-- 14&#45;&gt;10 -->
<g id="edge23" class="edge"><title>14&#45;&gt;10</title>
<path fill="none" stroke="grey" stroke-width="2" d="M224.488,-657.641C265.859,-646.373 345.762,-624.609 399.614,-609.941"/>
<polygon fill="grey" stroke="grey" stroke-width="2" points="400.623,-613.294 409.351,-607.289 398.783,-606.54 400.623,-613.294"/>
</g>
<!-- 15&#45;&gt;4 -->
<g id="edge15" class="edge"><title>15&#45;&gt;4</title>
<path fill="none" stroke="grey" stroke-width="2" d="M286.47,-287.697C286.47,-279.983 286.47,-270.712 286.47,-262.112"/>
<polygon fill="grey" stroke="grey" stroke-width="2" points="289.97,-262.104 286.47,-252.104 282.97,-262.104 289.97,-262.104"/>
</g>
<!-- 16&#45;&gt;8 -->
<g id="edge19" class="edge"><title>16&#45;&gt;8</title>
<path fill="none" stroke="grey" stroke-width="2" d="M253.774,-431.697C251.657,-423.898 249.108,-414.509 246.752,-405.829"/>
<polygon fill="grey" stroke="grey" stroke-width="2" points="250.11,-404.838 244.113,-396.104 243.355,-406.672 250.11,-404.838"/>
</g>
<!-- 17&#45;&gt;9 -->
<g id="edge22" class="edge"><title>17&#45;&gt;9</title>
<path fill="none" stroke="grey" stroke-width="2" d="M553.526,-431.697C551.298,-423.898 548.616,-414.509 546.136,-405.829"/>
<polygon fill="grey" stroke="grey" stroke-width="2" points="549.47,-404.758 543.357,-396.104 542.739,-406.681 549.47,-404.758"/>
</g>
<!-- 18&#45;&gt;13 -->
<g id="edge26" class="edge"><title>18&#45;&gt;13</title>
<path fill="none" stroke="grey" stroke-width="2" d="M550.47,-287.697C550.47,-279.983 550.47,-270.712 550.47,-262.112"/>
<polygon fill="grey" stroke="grey" stroke-width="2" points="553.97,-262.104 550.47,-252.104 546.97,-262.104 553.97,-262.104"/>
</g>
<!-- 19 -->
<g id="node20" class="node"><title>19</title>
<path fill="none" stroke="#d88556" stroke-width="2" d="M254.162,-756C254.162,-756 140.779,-756 140.779,-756 134.779,-756 128.779,-750 128.779,-744 128.779,-744 128.779,-732 128.779,-732 128.779,-726 134.779,-720 140.779,-720 140.779,-720 254.162,-720 254.162,-720 260.162,-720 266.162,-726 266.162,-732 266.162,-732 266.162,-744 266.162,-744 266.162,-750 260.162,-756 254.162,-756"/>
<text text-anchor="middle" x="197.47" y="-740" font-family="sans" font-size="10.00">clump</text>
<text text-anchor="middle" x="197.47" y="-730" font-family="sans" font-size="10.00">ExposureCode: loadKunkle</text>
</g>
<!-- 19&#45;&gt;14 -->
<g id="edge27" class="edge"><title>19&#45;&gt;14</title>
<path fill="none" stroke="grey" stroke-width="2" d="M197.47,-719.697C197.47,-711.983 197.47,-702.712 197.47,-694.112"/>
<polygon fill="grey" stroke="grey" stroke-width="2" points="200.97,-694.104 197.47,-684.104 193.97,-694.104 200.97,-694.104"/>
</g>
</g>
</svg>
